<svg width="550" height="260" viewBox="0 0 550 260" fill="none" xmlns="http://www.w3.org/2000/svg">
<path d="M405.244 256.94H492.189L502.506 154.571H394.926L405.244 256.94Z" fill="#DBE5E5"/>
<path d="M402.136 161.229H495.299C499.28 161.229 502.508 158.002 502.508 154.022V115.969C502.508 111.989 499.28 108.762 495.299 108.762L402.136 108.762C398.155 108.762 394.927 111.989 394.927 115.969V154.022C394.927 158.002 398.155 161.229 402.136 161.229Z" fill="#DBE5E5"/>
<path d="M394.427 154.022C394.427 158.001 397.689 161.222 401.703 161.222H495.731C499.749 161.222 503.007 157.995 503.007 154.022" stroke="white" stroke-width="6" stroke-linecap="round" stroke-linejoin="round"/>
<path d="M394.427 158.233C394.427 162.212 397.689 165.433 401.703 165.433H495.731C499.749 165.433 503.007 162.207 503.007 158.233" stroke="white" stroke-width="6" stroke-linecap="round" stroke-linejoin="round"/>
<path d="M408.232 154.842H489.201C493.182 154.842 496.41 151.616 496.41 147.636V122.186C496.41 118.205 493.182 114.979 489.201 114.979L408.232 114.979C404.251 114.979 401.023 118.205 401.023 122.186V147.636C401.023 151.616 404.251 154.842 408.232 154.842Z" fill="#423C52"/>
<path d="M458.811 186.772V208.867L456.835 207.843L454.871 208.855L452.908 207.843L450.945 208.855L448.982 207.843L447.018 208.855L445.054 207.843L443.092 208.855L441.128 207.843L439.153 208.867V181.732H453.769V186.772H458.811Z" stroke="white" stroke-width="7" stroke-linecap="round" stroke-linejoin="round"/>
<path d="M458.811 186.374V186.772H453.769V181.732H454.168L458.811 186.374Z" stroke="white" stroke-width="7" stroke-linecap="round" stroke-linejoin="round"/>
<path d="M458.811 186.772H453.769V181.732L458.811 186.772Z" fill="white"/>
<path d="M297.211 256.94H384.304L394.64 154.571H286.876L297.211 256.94Z" fill="#FFDB00"/>
<path d="M294.178 161.229H387.34C391.322 161.229 394.549 158.002 394.549 154.022V115.969C394.549 111.989 391.322 108.762 387.34 108.762L294.178 108.762C290.197 108.762 286.969 111.989 286.969 115.969V154.022C286.969 158.002 290.197 161.229 294.178 161.229Z" fill="white" stroke="#FFDB00" stroke-width="5" stroke-miterlimit="10"/>
<path d="M286.968 158.233C286.968 159.179 287.154 160.116 287.516 160.99C287.879 161.864 288.41 162.658 289.079 163.327C289.749 163.996 290.544 164.526 291.418 164.887C292.293 165.249 293.23 165.434 294.177 165.433H387.34C389.25 165.433 391.082 164.675 392.433 163.324C393.784 161.974 394.543 160.143 394.543 158.233" stroke="white" stroke-width="5" stroke-miterlimit="10"/>
<path d="M300.274 154.842H381.243C385.224 154.842 388.452 151.616 388.452 147.636V122.186C388.452 118.205 385.224 114.979 381.243 114.979L300.274 114.979C296.293 114.979 293.065 118.205 293.065 122.186V147.636C293.065 151.616 296.293 154.842 300.274 154.842Z" fill="#423C52"/>
<path d="M348.602 185.343V183.864C348.602 182.775 348.17 181.731 347.399 180.961C346.629 180.191 345.585 179.759 344.496 179.759H342.88V176.314C342.88 176.282 342.88 176.252 342.88 176.221C342.88 175.235 341.755 174.435 340.366 174.435C338.977 174.435 337.852 175.235 337.852 176.221C337.852 176.252 337.852 176.282 337.852 176.314V179.759H336.236C335.147 179.759 334.102 180.191 333.332 180.961C332.562 181.731 332.129 182.775 332.129 183.864V185.343C332.129 185.966 332.377 186.564 332.817 187.004C333.258 187.445 333.856 187.692 334.479 187.692H333.756C333.323 187.692 332.909 187.864 332.603 188.17C332.297 188.475 332.125 188.89 332.125 189.322V191.951C332.125 192.383 332.297 192.798 332.603 193.104C332.909 193.41 333.323 193.581 333.756 193.581H346.966C347.399 193.581 347.813 193.41 348.119 193.104C348.425 192.798 348.597 192.383 348.597 191.951V189.322C348.597 188.89 348.425 188.475 348.119 188.17C347.813 187.864 347.399 187.692 346.966 187.692H346.258C346.88 187.691 347.477 187.443 347.916 187.002C348.355 186.562 348.602 185.965 348.602 185.343ZM340.366 177.702C339.389 177.702 338.599 177.127 338.599 176.418C338.599 175.709 339.391 175.136 340.366 175.136C341.34 175.136 342.132 175.71 342.132 176.418C342.132 177.126 341.344 177.702 340.366 177.702Z" fill="white"/>
<path d="M348.602 195.866V214.711C348.603 214.848 348.577 214.983 348.526 215.11C348.475 215.236 348.399 215.352 348.303 215.449C348.207 215.546 348.093 215.624 347.967 215.677C347.841 215.73 347.706 215.758 347.569 215.759H346.34C346.145 215.758 345.954 215.702 345.79 215.597C345.626 215.493 345.495 215.344 345.411 215.168C345.392 215.102 345.368 215.04 345.344 214.977C345.194 214.653 344.953 214.38 344.651 214.19C344.348 214 343.998 213.901 343.641 213.906C343.283 213.912 342.936 214.02 342.639 214.219C342.342 214.418 342.11 214.698 341.969 215.026V215.039C341.961 215.062 341.953 215.083 341.943 215.106C341.944 215.112 341.944 215.117 341.943 215.123C341.866 215.312 341.735 215.474 341.565 215.588C341.396 215.702 341.196 215.763 340.992 215.763H339.769C339.569 215.762 339.374 215.703 339.207 215.593C339.039 215.484 338.908 215.328 338.827 215.145C338.814 215.1 338.798 215.058 338.78 215.009C338.636 214.681 338.4 214.402 338.101 214.206C337.802 214.01 337.452 213.905 337.094 213.904C336.736 213.903 336.386 214.007 336.086 214.201C335.785 214.396 335.548 214.674 335.403 215.001C335.383 215.045 335.366 215.09 335.351 215.136C335.301 215.251 335.23 215.355 335.142 215.443C335.047 215.54 334.933 215.617 334.808 215.67C334.683 215.722 334.548 215.749 334.412 215.749H333.189C332.913 215.747 332.65 215.635 332.456 215.439C332.262 215.243 332.155 214.977 332.156 214.702V195.866C332.156 195.26 332.397 194.68 332.825 194.251C333.254 193.823 333.835 193.583 334.441 193.583H346.345C346.946 193.59 347.52 193.834 347.942 194.261C348.365 194.689 348.602 195.265 348.602 195.866Z" fill="white"/>
<path d="M340.366 182.56C338.819 182.56 337.512 181.881 337.19 180.897L337.172 180.845V179.604H337.852V180.727C338.111 181.386 339.177 181.876 340.366 181.876C341.555 181.876 342.622 181.386 342.88 180.727V179.356H343.559V180.841L343.543 180.893C343.22 181.875 341.909 182.56 340.366 182.56Z" fill="#FFDB00"/>
<path d="M347.617 188.026H333.12C333.03 188.026 332.943 187.991 332.88 187.927C332.816 187.863 332.78 187.777 332.78 187.687C332.78 187.597 332.816 187.51 332.88 187.447C332.943 187.383 333.03 187.347 333.12 187.347H347.617C347.707 187.347 347.794 187.383 347.857 187.447C347.921 187.51 347.957 187.597 347.957 187.687C347.957 187.777 347.921 187.863 347.857 187.927C347.794 187.991 347.707 188.026 347.617 188.026Z" fill="#FFDB00"/>
<path d="M347.617 194.14H333.12C333.03 194.14 332.943 194.104 332.88 194.04C332.816 193.977 332.78 193.89 332.78 193.8C332.78 193.71 332.816 193.624 332.88 193.56C332.943 193.496 333.03 193.46 333.12 193.46H347.617C347.707 193.46 347.794 193.496 347.857 193.56C347.921 193.624 347.957 193.71 347.957 193.8C347.957 193.89 347.921 193.977 347.857 194.04C347.794 194.104 347.707 194.14 347.617 194.14Z" fill="#FFDB00"/>
<path d="M188.404 256.94L178.085 154.571H285.666L275.349 256.94" stroke="#DBE5E5" stroke-width="6" stroke-miterlimit="10"/>
<path d="M285.214 158.233C285.214 162.212 282.014 165.433 278.066 165.433H185.686C181.738 165.433 178.538 162.207 178.538 158.233" stroke="#DBE5E5" stroke-width="6" stroke-miterlimit="10"/>
<path d="M278.456 108.761H185.294C181.313 108.761 178.085 111.987 178.085 115.968V154.02C178.085 158.001 181.313 161.227 185.294 161.227H278.456C282.438 161.227 285.666 158.001 285.666 154.02V115.968C285.666 111.987 282.438 108.761 278.456 108.761Z" fill="white" stroke="#DBE5E5" stroke-width="6" stroke-miterlimit="10"/>
<path d="M272.36 114.98H191.392C187.41 114.98 184.183 118.207 184.183 122.187V147.637C184.183 151.617 187.41 154.844 191.392 154.844H272.36C276.342 154.844 279.569 151.617 279.569 147.637V122.187C279.569 118.207 276.342 114.98 272.36 114.98Z" fill="#423C52"/>
<path d="M235.052 182.272V196.944C235.052 199.068 232.375 200.79 229.073 200.79C225.77 200.79 223.093 199.068 223.093 196.944V182.272C223.093 184.397 225.769 186.118 229.073 186.118C232.376 186.118 235.052 184.397 235.052 182.272Z" fill="#DBE5E5"/>
<path d="M234.603 182.246V182.272C234.603 184.396 232.127 186.118 229.073 186.118C226.018 186.118 223.542 184.396 223.542 182.272V182.246C223.562 180.133 226.03 178.426 229.073 178.426C232.115 178.426 234.583 180.133 234.603 182.246Z" stroke="#DBE5E5" stroke-width="6" stroke-miterlimit="10"/>
<path d="M229.073 200.789V212.175" stroke="#DBE5E5" stroke-width="6" stroke-miterlimit="10"/>
<path d="M233.22 212.175H224.924" stroke="#DBE5E5" stroke-width="6" stroke-miterlimit="10"/>
<path d="M167.843 256.94H80.5295L70.1675 154.571H178.203L167.843 256.94Z" fill="#FE552F"/>
<path d="M170.767 108.761H77.605C73.6235 108.761 70.3959 111.987 70.3959 115.968V154.02C70.3959 158.001 73.6235 161.227 77.605 161.227H170.767C174.749 161.227 177.976 158.001 177.976 154.02V115.968C177.976 111.987 174.749 108.761 170.767 108.761Z" fill="white" stroke="#FE552F" stroke-width="5" stroke-miterlimit="10"/>
<path d="M178.407 158.233C178.407 162.212 175.154 165.433 171.141 165.433H77.2381C73.2238 165.433 69.9705 162.207 69.9705 158.233" stroke="white" stroke-width="6" stroke-linecap="round" stroke-linejoin="round"/>
<path d="M164.67 114.98H83.7012C79.7197 114.98 76.4921 118.207 76.4921 122.187V147.637C76.4921 151.617 79.7197 154.844 83.7012 154.844H164.67C168.651 154.844 171.879 151.617 171.879 147.637V122.187C171.879 118.207 168.651 114.98 164.67 114.98Z" fill="#423C52"/>
<path d="M134.263 192.945C134.263 197.635 131.176 201.437 127.367 201.437C126.913 201.437 126.46 201.383 126.019 201.276C124.735 200.962 123.395 200.962 122.112 201.276C121.669 201.383 121.216 201.437 120.761 201.437C116.956 201.437 113.864 197.634 113.864 192.945C113.864 188.257 116.95 184.452 120.761 184.452C121.941 184.458 123.092 184.818 124.064 185.486C125.037 184.819 126.187 184.458 127.367 184.452C131.172 184.452 134.263 188.255 134.263 192.945Z" fill="white"/>
<path d="M124.06 185.486V179.987" stroke="white" stroke-width="7" stroke-linecap="round" stroke-linejoin="round"/>
<path d="M130.274 178.967C130.242 179.691 130.044 180.398 129.695 181.034C129.346 181.67 128.856 182.217 128.262 182.633C127.668 183.049 126.986 183.323 126.27 183.434C125.553 183.544 124.82 183.489 124.128 183.272C124.162 182.548 124.361 181.842 124.71 181.207C125.059 180.572 125.549 180.026 126.143 179.611C126.737 179.195 127.418 178.922 128.134 178.811C128.85 178.7 129.582 178.754 130.274 178.971V178.967Z" fill="white"/>
<path d="M525.152 257.545H393.277C393.277 257.545 398.119 241.254 416.418 240.525C434.716 239.797 455.755 251.639 455.755 251.639C455.755 251.639 459.095 212.756 490.537 210.569C521.979 208.382 525.152 257.545 525.152 257.545Z" fill="#B59B00"/>
<path d="M549.291 247.753C545.064 253.791 538.647 257.545 538.647 257.545H472.195C464.748 242.346 465.061 222.111 466.651 213.562C467.133 210.971 470.378 210.03 472.148 211.986C482.832 223.774 493.169 249.159 493.169 249.159C495.615 221.876 510.125 196.523 517.975 184.568C520.041 181.422 524.883 182.272 525.739 185.936C531.417 210.223 520.53 233.359 520.122 234.215C524.804 225.123 532.668 218.39 538.006 214.566C540.475 212.8 543.897 214.676 543.731 217.708C543.052 230.221 537.972 240.475 533.248 247.444C537.119 244.727 541.471 242.993 545.071 241.9C548.545 240.847 551.373 244.779 549.291 247.753Z" fill="#907B00"/>
<path d="M522.191 183.086C522.191 183.086 515.915 227.723 502.525 257.073" stroke="#B59B00" stroke-width="5" stroke-miterlimit="10" stroke-linecap="round"/>
<path d="M541.651 214.98C541.651 214.98 523.984 250.945 511.56 257.073" stroke="#B59B00" stroke-width="5" stroke-miterlimit="10" stroke-linecap="round"/>
<path d="M469.466 212.005C469.466 212.005 476.239 246.269 484.306 257.073" stroke="#B59B00" stroke-width="5" stroke-miterlimit="10" stroke-linecap="round"/>
<path d="M537.456 201.135C539.198 201.135 540.61 199.723 540.61 197.981C540.61 196.24 539.198 194.828 537.456 194.828C535.714 194.828 534.302 196.24 534.302 197.981C534.302 199.723 535.714 201.135 537.456 201.135Z" stroke="#B59B00" stroke-width="5" stroke-miterlimit="10"/>
<path d="M451.408 238.591C452.894 238.591 454.098 237.387 454.098 235.901C454.098 234.416 452.894 233.211 451.408 233.211C449.922 233.211 448.717 234.416 448.717 235.901C448.717 237.387 449.922 238.591 451.408 238.591Z" stroke="#B59B00" stroke-width="5" stroke-miterlimit="10"/>
<path d="M513.397 192.723L518.077 204.904L526.681 194.828" stroke="#B59B00" stroke-width="5" stroke-miterlimit="10" stroke-linecap="round"/>
<path d="M509.714 199.419L515.694 214.98L526.685 202.109" stroke="#B59B00" stroke-width="5" stroke-miterlimit="10" stroke-linecap="round"/>
<path d="M523.857 229.27V245.151H533.903" stroke="#B59B00" stroke-width="5" stroke-miterlimit="10" stroke-linecap="round"/>
<path d="M484.903 233.342L481.163 251.639L467.402 237.211" stroke="#B59B00" stroke-width="5" stroke-miterlimit="10" stroke-linecap="round"/>
<path d="M144.691 249.485C155.878 249.485 164.947 240.419 164.947 229.235C164.947 218.051 155.878 208.985 144.691 208.985C133.503 208.985 124.434 218.051 124.434 229.235C124.434 240.419 133.503 249.485 144.691 249.485Z" fill="#907B00"/>
<path d="M133.823 235.424L157.107 214.039" stroke="#B59B00" stroke-width="5" stroke-miterlimit="10" stroke-linecap="round"/>
<path d="M149.185 210.162L147.532 222.832" stroke="#B59B00" stroke-width="5" stroke-miterlimit="10" stroke-linecap="round"/>
<path d="M143.868 226.197L163.123 222.001" stroke="#B59B00" stroke-width="5" stroke-miterlimit="10" stroke-linecap="round"/>
<path d="M160 216.878L157.697 223.184" stroke="#B59B00" stroke-width="5" stroke-miterlimit="10" stroke-linecap="round"/>
<path d="M137.476 210.837L136.519 232.946" stroke="#B59B00" stroke-width="5" stroke-miterlimit="10" stroke-linecap="round"/>
<path d="M133.002 213.127L136.995 221.949" stroke="#B59B00" stroke-width="5" stroke-miterlimit="10" stroke-linecap="round"/>
<path d="M164.224 230.107L142.145 242.017" stroke="#B59B00" stroke-width="5" stroke-miterlimit="10" stroke-linecap="round"/>
<path d="M204.014 256.969H0C0.438938 253.798 3.57809 240.02 25.0249 241.123C25.0249 241.123 29.6032 197.532 74.4659 194.858C129.033 191.598 142.868 242.346 142.868 242.346C142.868 242.346 193.837 229.788 204.014 256.969Z" fill="#B59B00"/>
<path d="M56.3036 256.969C56.3036 256.969 37.2554 237.11 55.1839 228.033C68.371 221.352 70.2165 253.778 70.2165 253.778C70.2165 253.778 70.0575 237.31 75.3342 237.95C80.611 238.59 75.3342 255.704 75.3342 255.704C75.3342 255.704 86.2058 246.738 90.2078 251.38C94.2099 256.022 80.1327 256.976 80.1327 256.976L56.3036 256.969Z" fill="#907B00"/>
<path d="M461.768 74.0704C460.311 74.0705 458.901 74.5822 457.783 75.5161C456.666 76.4499 455.911 77.7467 455.653 79.1797L447.227 125.885C447.042 126.766 447.057 127.678 447.269 128.553C447.481 129.429 447.885 130.246 448.453 130.945C449.021 131.644 449.738 132.208 450.551 132.595C451.365 132.983 452.254 133.184 453.155 133.184H431.757C430.856 133.184 429.967 132.983 429.153 132.595C428.34 132.208 427.623 131.644 427.055 130.945C426.487 130.246 426.083 129.429 425.871 128.553C425.659 127.678 425.645 126.766 425.83 125.885L434.255 79.1797C434.514 77.7467 435.268 76.4499 436.385 75.5161C437.503 74.5822 438.913 74.0705 440.37 74.0704H461.768Z" fill="#FFDB00"/>
<path d="M457.608 77.9204C458.102 75.3583 460.673 74.0704 463.233 74.0704H461.768C460.311 74.0705 458.901 74.5822 457.783 75.5161C456.666 76.4499 455.911 77.7467 455.653 79.1797L447.227 125.885C447.042 126.766 447.057 127.678 447.269 128.553C447.481 129.429 447.885 130.246 448.453 130.945C449.021 131.644 449.738 132.208 450.551 132.595C451.365 132.983 452.254 133.184 453.155 133.184H460.179C461.08 133.184 461.97 132.983 462.783 132.595C463.597 132.208 464.313 131.644 464.881 130.945C465.449 130.246 465.854 129.429 466.066 128.553C466.278 127.678 466.292 126.766 466.107 125.885L457.608 77.9204Z" fill="#EB7500"/>
<path d="M456.756 76.0267V125.068L463.533 132.172" stroke="#FFDB00" stroke-width="5" stroke-miterlimit="10"/>
<path d="M449.911 132.369L456.756 125.068" stroke="#FFDB00" stroke-width="5" stroke-miterlimit="10"/>
<path d="M486.908 86.862C485.649 87.0658 485.346 82.5149 485.346 82.5149C484.394 68.4232 490.502 58.5891 492.134 56.6124C493.149 55.4061 494.12 54.6318 494.974 54.7839C497.057 55.1575 497.916 63.1916 495.633 72.0178C493.993 78.3633 489.186 86.4953 486.908 86.862Z" fill="#423C52"/>
<path d="M486.839 86.4695L523.96 112.152C528.097 114.597 536.348 101.373 535.935 87.1881C535.522 73.0027 530.346 61.7014 522.889 60.2233L494.971 55.1534C494.971 55.1534 498.421 61.9391 494.922 72.8139C491.364 83.887 486.839 86.4695 486.839 86.4695Z" stroke="#423C52" stroke-width="5" stroke-linejoin="round"/>
<path d="M501.052 93.0093C501.988 93.0093 502.746 92.2514 502.746 91.3166C502.746 90.3817 501.988 89.6239 501.052 89.6239C500.117 89.6239 499.359 90.3817 499.359 91.3166C499.359 92.2514 500.117 93.0093 501.052 93.0093Z" fill="#DBE5E5"/>
<path d="M508.963 93.0093C509.898 93.0093 510.656 92.2514 510.656 91.3166C510.656 90.3817 509.898 89.6239 508.963 89.6239C508.028 89.6239 507.269 90.3817 507.269 91.3166C507.269 92.2514 508.028 93.0093 508.963 93.0093Z" fill="#DBE5E5"/>
<path d="M518.513 78.5591C519.449 78.5591 520.207 77.8012 520.207 76.8664C520.207 75.9315 519.449 75.1737 518.513 75.1737C517.578 75.1737 516.82 75.9315 516.82 76.8664C516.82 77.8012 517.578 78.5591 518.513 78.5591Z" fill="#DBE5E5"/>
<path d="M518.081 93.0093C519.016 93.0093 519.775 92.2514 519.775 91.3166C519.775 90.3817 519.016 89.6239 518.081 89.6239C517.146 89.6239 516.388 90.3817 516.388 91.3166C516.388 92.2514 517.146 93.0093 518.081 93.0093Z" fill="#DBE5E5"/>
<path d="M517.809 105.237C518.745 105.237 519.503 104.479 519.503 103.544C519.503 102.609 518.745 101.852 517.809 101.852C516.874 101.852 516.116 102.609 516.116 103.544C516.116 104.479 516.874 105.237 517.809 105.237Z" fill="#DBE5E5"/>
<path d="M529.385 78.5591C530.32 78.5591 531.078 77.8012 531.078 76.8664C531.078 75.9315 530.32 75.1737 529.385 75.1737C528.45 75.1737 527.692 75.9315 527.692 76.8664C527.692 77.8012 528.45 78.5591 529.385 78.5591Z" fill="#DBE5E5"/>
<path d="M528.953 93.0093C529.888 93.0093 530.646 92.2514 530.646 91.3166C530.646 90.3817 529.888 89.6239 528.953 89.6239C528.018 89.6239 527.26 90.3817 527.26 91.3166C527.26 92.2514 528.018 93.0093 528.953 93.0093Z" fill="#DBE5E5"/>
<path d="M528.681 105.237C529.616 105.237 530.374 104.479 530.374 103.544C530.374 102.609 529.616 101.852 528.681 101.852C527.746 101.852 526.988 102.609 526.988 103.544C526.988 104.479 527.746 105.237 528.681 105.237Z" fill="#DBE5E5"/>
<path d="M506.7 97.4148C506.701 97.7525 506.6 98.0825 506.411 98.3625C506.222 98.6424 505.954 98.8593 505.64 98.9852L503.315 97.3944C503.33 96.9539 503.516 96.5365 503.834 96.231C504.152 95.9256 504.576 95.7562 505.017 95.7588C505.458 95.7615 505.881 95.936 506.195 96.2452C506.509 96.5545 506.69 96.9741 506.7 97.4148Z" fill="#DBE5E5"/>
<path d="M512.919 99.5099C513.854 99.5099 514.612 98.752 514.612 97.8172C514.612 96.8824 513.854 96.1245 512.919 96.1245C511.983 96.1245 511.225 96.8824 511.225 97.8172C511.225 98.752 511.983 99.5099 512.919 99.5099Z" fill="#DBE5E5"/>
<path d="M523.696 70.9663C524.631 70.9663 525.39 70.2085 525.39 69.2736C525.39 68.3388 524.631 67.5809 523.696 67.5809C522.761 67.5809 522.003 68.3388 522.003 69.2736C522.003 70.2085 522.761 70.9663 523.696 70.9663Z" fill="#DBE5E5"/>
<path d="M523.815 85.6531C524.75 85.6531 525.508 84.8952 525.508 83.9604C525.508 83.0255 524.75 82.2677 523.815 82.2677C522.879 82.2677 522.121 83.0255 522.121 83.9604C522.121 84.8952 522.879 85.6531 523.815 85.6531Z" fill="#DBE5E5"/>
<path d="M533.191 85.6531C534.126 85.6531 534.884 84.8952 534.884 83.9604C534.884 83.0255 534.126 82.2677 533.191 82.2677C532.256 82.2677 531.498 83.0255 531.498 83.9604C531.498 84.8952 532.256 85.6531 533.191 85.6531Z" fill="#DBE5E5"/>
<path d="M523.382 99.3739C524.318 99.3739 525.076 98.6161 525.076 97.6812C525.076 96.7464 524.318 95.9885 523.382 95.9885C522.447 95.9885 521.689 96.7464 521.689 97.6812C521.689 98.6161 522.447 99.3739 523.382 99.3739Z" fill="#DBE5E5"/>
<path d="M523.382 110.921C524.318 110.921 525.076 110.163 525.076 109.228C525.076 108.293 524.318 107.536 523.382 107.536C522.447 107.536 521.689 108.293 521.689 109.228C521.689 110.163 522.447 110.921 523.382 110.921Z" fill="#DBE5E5"/>
<path d="M500.941 78.5591C501.876 78.5591 502.634 77.8012 502.634 76.8664C502.634 75.9315 501.876 75.1737 500.941 75.1737C500.006 75.1737 499.248 75.9315 499.248 76.8664C499.248 77.8012 500.006 78.5591 500.941 78.5591Z" fill="#DBE5E5"/>
<path d="M509.395 78.5591C510.33 78.5591 511.088 77.8012 511.088 76.8664C511.088 75.9315 510.33 75.1737 509.395 75.1737C508.46 75.1737 507.702 75.9315 507.702 76.8664C507.702 77.8012 508.46 78.5591 509.395 78.5591Z" fill="#DBE5E5"/>
<path d="M505.44 85.6531C506.376 85.6531 507.134 84.8952 507.134 83.9604C507.134 83.0255 506.376 82.2677 505.44 82.2677C504.505 82.2677 503.747 83.0255 503.747 83.9604C503.747 84.8952 504.505 85.6531 505.44 85.6531Z" fill="#DBE5E5"/>
<path d="M495.883 85.2209C496.818 85.2209 497.576 84.4631 497.576 83.5283C497.576 82.5934 496.818 81.8356 495.883 81.8356C494.948 81.8356 494.19 82.5934 494.19 83.5283C494.19 84.4631 494.948 85.2209 495.883 85.2209Z" fill="#DBE5E5"/>
<path d="M490.909 88.7845C491.201 88.46 491.6 88.252 492.033 88.1988C492.466 88.1456 492.904 88.2509 493.266 88.4951C494.033 89.029 494.217 90.0832 493.691 90.7149L490.909 88.7845Z" fill="#DBE5E5"/>
<path d="M513.894 85.6531C514.829 85.6531 515.588 84.8952 515.588 83.9604C515.588 83.0255 514.829 82.2677 513.894 82.2677C512.959 82.2677 512.201 83.0255 512.201 83.9604C512.201 84.8952 512.959 85.6531 513.894 85.6531Z" fill="#DBE5E5"/>
<path d="M500.687 64.1102C501.622 64.1102 502.38 63.3524 502.38 62.4175C502.38 61.4827 501.622 60.7249 500.687 60.7249C499.752 60.7249 498.994 61.4827 498.994 62.4175C498.994 63.3524 499.752 64.1102 500.687 64.1102Z" fill="#DBE5E5"/>
<path d="M509.278 64.1102C510.213 64.1102 510.971 63.3524 510.971 62.4175C510.971 61.4827 510.213 60.7249 509.278 60.7249C508.343 60.7249 507.585 61.4827 507.585 62.4175C507.585 63.3524 508.343 64.1102 509.278 64.1102Z" fill="#DBE5E5"/>
<path d="M518.513 64.2284C519.449 64.2284 520.207 63.4705 520.207 62.5357C520.207 61.6009 519.449 60.843 518.513 60.843C517.578 60.843 516.82 61.6009 516.82 62.5357C516.82 63.4705 517.578 64.2284 518.513 64.2284Z" fill="#DBE5E5"/>
<path d="M505.322 70.9663C506.257 70.9663 507.015 70.2085 507.015 69.2736C507.015 68.3388 506.257 67.5809 505.322 67.5809C504.387 67.5809 503.629 68.3388 503.629 69.2736C503.629 70.2085 504.387 70.9663 505.322 70.9663Z" fill="#DBE5E5"/>
<path d="M496.619 67.2672C496.843 67.3012 497.057 67.3796 497.249 67.4976C497.442 67.6156 497.609 67.7709 497.74 67.9543C497.872 68.1378 497.965 68.3457 498.015 68.5658C498.065 68.7859 498.071 69.0138 498.031 69.2361C497.992 69.4584 497.908 69.6705 497.786 69.86C497.663 70.0496 497.504 70.2126 497.317 70.3397C497.131 70.4667 496.92 70.5552 496.699 70.5998C496.478 70.6445 496.25 70.6444 496.028 70.5996L496.619 67.2672Z" fill="#DBE5E5"/>
<path d="M513.232 70.9663C514.168 70.9663 514.926 70.2085 514.926 69.2736C514.926 68.3388 514.168 67.5809 513.232 67.5809C512.297 67.5809 511.539 68.3388 511.539 69.2736C511.539 70.2085 512.297 70.9663 513.232 70.9663Z" fill="#DBE5E5"/>
<path d="M507.021 57.7254C506.982 57.9482 506.899 58.1611 506.777 58.3517C506.655 58.5422 506.496 58.7067 506.31 58.8354C506.124 58.9642 505.914 59.0547 505.693 59.1017C505.472 59.1487 505.243 59.1513 505.021 59.1092C504.798 59.0672 504.587 58.9814 504.398 58.8569C504.209 58.7323 504.046 58.5715 503.92 58.3837C503.794 58.1959 503.706 57.9849 503.662 57.763C503.619 57.5411 503.619 57.3126 503.664 57.0909L507.021 57.7254Z" fill="#DBE5E5"/>
<path d="M495.091 71.2515C493.521 77.5617 491.075 82.7171 488.897 84.7522L484.804 82.1031L471.566 73.5364L469.922 77.1038C469.457 77.8823 468.799 78.5285 468.013 78.9804C467.227 79.4323 466.337 79.6749 465.43 79.685L460.167 79.7529C460.027 79.7547 459.887 79.7286 459.756 79.6762C459.626 79.6237 459.507 79.5459 459.407 79.4472C459.306 79.3486 459.226 79.2311 459.172 79.1014C459.117 78.9718 459.089 78.8326 459.088 78.6919C459.085 77.8067 459.34 76.9397 459.821 76.1965C460.302 75.4534 460.989 74.8661 461.798 74.5064L463.214 73.8774L463.096 72.1671C463.095 71.4673 462.817 70.7962 462.322 70.3015C461.827 69.8068 461.155 69.5289 460.455 69.5289H455.554C455.115 69.5287 454.684 69.6378 454.298 69.8463C453.913 70.0548 453.585 70.3561 453.345 70.723L451.443 77.4706C451.843 78.0158 452.129 78.6362 452.282 79.2946C452.436 79.953 452.455 80.6357 452.338 81.3016L452.117 82.5623C452.093 82.7073 452.032 82.8437 451.94 82.9587C451.848 83.0737 451.729 83.1634 451.593 83.2194C451.457 83.2754 451.309 83.2958 451.163 83.2788C451.017 83.2618 450.877 83.2078 450.758 83.122L439.79 75.4071C438.795 74.6691 438.072 73.6224 437.734 72.4305C437.397 71.2385 437.464 69.9684 437.924 68.8184L444.012 57.9205C444.613 56.6181 445.546 55.4959 446.716 54.6657C447.886 53.8355 449.254 53.3263 450.682 53.1889L470.539 51.2734C471.847 51.2734 473.15 51.4391 474.417 51.7666L491.591 56.2034L496.212 57.3962C496.848 60.4338 496.497 65.5988 495.091 71.2515Z" fill="white"/>
<path d="M445.295 64.7878L442.063 71.7746C441.603 72.9246 441.536 74.1947 441.874 75.3867C442.211 76.5786 442.934 77.6253 443.929 78.3633" stroke="#423C52" stroke-width="5" stroke-linecap="round" stroke-linejoin="round"/>
<path d="M449.321 67.51L446.095 74.4981C445.635 75.648 445.568 76.9179 445.906 78.1097C446.243 79.3016 446.965 80.3483 447.96 81.0868" stroke="#423C52" stroke-width="5" stroke-linecap="round" stroke-linejoin="round"/>
<path d="M471.328 73.3723L473.992 67.274L482.995 80.8495L471.328 73.3723Z" fill="#423C52"/>
<g style="mix-blend-mode:multiply">
<path d="M495.091 71.2516C493.521 77.5618 491.075 82.7173 488.897 84.7523L484.803 82.1032C484.358 79.0045 484.759 74.2117 486.052 69.0046C487.466 63.322 489.586 58.5741 491.591 56.2008L496.212 57.3936C496.848 60.4339 496.497 65.5989 495.091 71.2516Z" fill="#DBE5E5"/>
</g>
<path d="M495.091 71.2515C493.521 77.5617 491.075 82.7171 488.897 84.7522L484.804 82.1031L471.566 73.5364L469.922 77.1038C469.457 77.8823 468.799 78.5285 468.013 78.9804C467.227 79.4323 466.337 79.6749 465.43 79.685L460.167 79.7529C460.027 79.7547 459.887 79.7286 459.756 79.6762C459.626 79.6237 459.507 79.5459 459.407 79.4472C459.306 79.3486 459.226 79.2311 459.172 79.1014C459.117 78.9718 459.089 78.8326 459.088 78.6919C459.085 77.8067 459.34 76.9397 459.821 76.1965C460.302 75.4534 460.989 74.8661 461.798 74.5064L463.214 73.8774L463.096 72.1671C463.095 71.4673 462.817 70.7962 462.322 70.3015C461.827 69.8068 461.155 69.5289 460.455 69.5289H455.554C455.115 69.5287 454.684 69.6378 454.298 69.8463C453.913 70.0548 453.585 70.3561 453.345 70.723L451.443 77.4706C451.843 78.0158 452.129 78.6362 452.282 79.2946C452.436 79.953 452.455 80.6357 452.338 81.3016L452.117 82.5623C452.093 82.7073 452.032 82.8437 451.94 82.9587C451.848 83.0737 451.729 83.1634 451.593 83.2194C451.457 83.2754 451.309 83.2958 451.163 83.2788C451.017 83.2618 450.877 83.2078 450.758 83.122L439.79 75.4071C438.795 74.6691 438.072 73.6224 437.734 72.4305C437.397 71.2385 437.464 69.9684 437.924 68.8184L444.012 57.9205C444.613 56.6181 445.546 55.4959 446.716 54.6657C447.886 53.8355 449.254 53.3263 450.682 53.1889L470.539 51.2734C471.847 51.2734 473.15 51.4391 474.417 51.7666L491.591 56.2034L496.212 57.3962C496.848 60.4338 496.497 65.5988 495.091 71.2515Z" stroke="#423C52" stroke-width="5" stroke-linejoin="round"/>
<path d="M331.009 49.49L348.589 75.4372L348.971 76.001C349.953 77.9926 348.545 81.4472 345.527 84.1425C342.509 86.8377 338.917 87.8484 337.047 86.6475L336.529 86.2047L312.715 65.8272L331.009 49.49Z" fill="white" stroke="#FE552F" stroke-width="6" stroke-linejoin="round"/>
<path d="M331.009 49.49C333.874 52.6974 331.041 57.7659 325.989 62.2775C320.938 66.789 315.58 69.0333 312.715 65.8272C309.851 62.6212 310.56 55.1753 315.611 50.6637C320.662 46.1521 328.143 46.2826 331.009 49.49Z" fill="white" stroke="#FE552F" stroke-width="6" stroke-linejoin="round"/>
<path d="M319.466 54.9818C320.74 53.8443 321.264 52.3533 320.638 51.6516C320.011 50.9499 318.47 51.3032 317.196 52.4407C315.922 53.5782 315.397 55.0692 316.024 55.7709C316.651 56.4726 318.192 56.1193 319.466 54.9818Z" fill="white" stroke="#FE552F" stroke-width="6" stroke-linejoin="round"/>
<path d="M336.216 73.4211L315.172 49.8676C314.219 48.8005 313.62 47.464 313.458 46.0424C313.296 44.6207 313.579 43.1839 314.269 41.9299L317.826 35.4675" stroke="#FE552F" stroke-width="6" stroke-linecap="round" stroke-linejoin="round"/>
<path d="M413.39 10.0147L406.564 14.9053L349.071 56.1288V61.5411C349.071 62.5484 348.824 63.5403 348.35 64.4293C347.876 65.3182 347.19 66.0768 346.353 66.6381L338.757 71.7257L338.681 71.5899C338.119 70.6271 337.785 69.5485 337.705 68.4369C337.625 67.3252 337.8 66.2099 338.217 65.1764L340.137 62.3045L332.349 50.7845L331.262 49.2331C329.452 47.2117 325.307 46.2865 321.599 47.1057L351.865 14.8184L356.882 9.4659C364.034 6.14845 374.448 3.6366 386.439 3.6366C398.144 3.64067 408.734 6.75434 413.39 10.0147Z" fill="#A0505A"/>
<path d="M365.97 44.0123L360.69 47.7984C348.282 43.1184 342.092 33.378 339.512 28.0147L340.621 26.8314C343.879 30.7548 352.447 39.6787 365.97 44.0123Z" fill="#423C52"/>
<path d="M317.786 78.124C318.96 80.5462 322.492 82.2674 325.178 82.0936L329.255 81.8219C329.477 81.8071 329.694 81.7466 329.892 81.6441C330.09 81.5416 330.265 81.3994 330.405 81.2263C330.545 81.0532 330.648 80.8531 330.708 80.6383C330.767 80.4236 330.781 80.1989 330.75 79.9784L329.436 70.7637C329.338 70.0851 328.999 69.4644 328.48 69.0154C327.962 68.5663 327.299 68.3189 326.613 68.3184H318.404C316.909 68.3184 315.021 68.0467 313.648 67.2846C313.598 67.2559 313.54 67.2437 313.483 67.2496C313.426 67.2556 313.373 67.2794 313.33 67.3177C313.287 67.356 313.258 67.4067 313.246 67.4628C313.234 67.5188 313.24 67.5772 313.263 67.6297L317.786 78.124Z" fill="#A0505A"/>
<path d="M316.819 75.2714C318.113 77.9884 320.642 79.5153 323.602 79.3183L328.472 79.0208C329.509 78.9515 330.2 77.8878 330.053 76.8391" stroke="#423C52" stroke-width="5" stroke-linecap="round" stroke-linejoin="round"/>
<path d="M315.36 71.8751C316.784 74.5921 319.468 75.9941 322.728 75.7971L327.675 75.4996C328.816 75.4303 329.655 74.3476 329.493 73.3002" stroke="#423C52" stroke-width="5" stroke-linecap="round" stroke-linejoin="round"/>
<path d="M313.562 67.5958C315.05 70.3128 318.253 72.3438 321.661 72.1468L326.835 71.8493C328.028 71.78 328.903 70.8277 328.737 69.7789" stroke="#423C52" stroke-width="5" stroke-linecap="round" stroke-linejoin="round"/>
<path opacity="0.5" d="M415.157 14.8182H415.273L371.218 45.4047C350.498 40.8945 339.637 25.0273 339.637 25.0273L348.821 14.8182C354.05 9.28232 368.473 3.64185 386.439 3.64185C404.247 3.64049 419.473 10.8459 415.157 14.8182Z" fill="#FFDB00"/>
<path d="M371.216 45.4047C350.497 40.8945 339.636 25.0273 339.636 25.0273L348.82 14.8182C354.05 9.28231 368.471 3.64185 386.439 3.64185C404.407 3.64185 419.744 10.9777 415.03 14.9173L371.216 45.4047Z" stroke="#FFDB00" stroke-width="5" stroke-miterlimit="10" stroke-linecap="round"/>
<path d="M342.611 21.7191V28.6474C342.359 28.3757 342.126 28.1108 341.907 27.8609V22.5016L342.611 21.7191Z" fill="#FFDB00"/>
<path d="M347.786 15.9661V33.6346C347.545 33.4295 347.311 33.2271 347.082 33.0274V16.7486L347.786 15.9661Z" fill="#FFDB00"/>
<path d="M352.959 11.5576V37.5592C352.721 37.4003 352.487 37.2413 352.256 37.0797V12.0127C352.483 11.8619 352.719 11.7125 352.959 11.5576Z" fill="#FFDB00"/>
<path d="M358.135 8.91138V40.6377C357.897 40.514 357.664 40.3891 357.431 40.2641V9.2184C357.662 9.11515 357.897 9.01281 358.135 8.91138Z" fill="#FFDB00"/>
<path d="M363.31 7.00659V43.0067C363.072 42.913 362.836 42.8179 362.603 42.7228V7.23346L363.31 7.00659Z" fill="#FFDB00"/>
<path d="M368.484 5.60864V44.7333C368.247 44.6681 368.013 44.5974 367.78 44.5336V5.77438C368.013 5.71596 368.247 5.66298 368.484 5.60864Z" fill="#FFDB00"/>
<path d="M373.66 4.61731V43.7107L372.954 44.1998V4.73142L373.349 4.66757L373.66 4.61731Z" fill="#FFDB00"/>
<path d="M378.833 3.98254V40.1185L378.129 40.6062V4.04911C378.362 4.02466 378.601 4.00292 378.833 3.98254Z" fill="#FFDB00"/>
<path d="M384.007 3.67847V36.5337L383.304 37.0227V3.69884C383.537 3.68933 383.772 3.67847 384.007 3.67847Z" fill="#FFDB00"/>
<path d="M389.183 3.69749V32.9459L388.479 33.4336V3.67847C388.714 3.67847 388.949 3.68798 389.183 3.69749Z" fill="#FFDB00"/>
<path d="M394.365 4.10772V29.354L393.659 29.843V4.02893C393.888 4.05338 394.124 4.08599 394.365 4.10772Z" fill="#FFDB00"/>
<path d="M399.529 4.92264V25.7701L399.295 25.9304L398.823 26.2578V4.79358C399.061 4.83026 399.296 4.87645 399.529 4.92264Z" fill="#FFDB00"/>
<path d="M404.706 6.19305V22.1798L404.001 22.6702V5.98792C404.239 6.05493 404.474 6.12331 404.706 6.19305Z" fill="#FFDB00"/>
<path d="M409.881 8.07983V18.5919L409.176 19.0809V7.77417C409.417 7.8747 409.652 7.97659 409.881 8.07983Z" fill="#FFDB00"/>
<path d="M415.054 14.8168V14.9635L414.349 15.4539V14.8168H415.054Z" fill="#FFDB00"/>
<path d="M377.964 40.7191L376.948 41.4242H359.712C359.233 41.1946 358.76 40.9582 358.304 40.7191H377.964Z" fill="#FFDB00"/>
<path d="M385.413 35.5459L384.398 36.251H351.104C350.782 36.0155 350.465 35.7805 350.153 35.5459H385.413Z" fill="#FFDB00"/>
<path d="M392.862 30.3741L391.846 31.0792H344.97C344.722 30.8401 344.483 30.6051 344.255 30.3741H392.862Z" fill="#FFDB00"/>
<path d="M400.311 25.2009L399.53 25.7443L399.296 25.906H340.288C340.044 25.5895 339.867 25.349 339.76 25.2009H400.311Z" fill="#FFDB00"/>
<path d="M407.76 20.0292L406.746 20.7329H343.498L344.131 20.0292H407.76Z" fill="#FFDB00"/>
<path d="M415.209 14.856L415.054 14.9633L414.349 15.4537L414.196 15.5597H348.151L348.784 14.856H415.209Z" fill="#FFDB00"/>
<path d="M413.909 10.3975H355.004C355.457 10.1603 355.924 9.9257 356.405 9.69385H412.913C413.276 9.92751 413.608 10.1621 413.909 10.3975Z" fill="#FFDB00"/>
<path d="M241.275 90.3505V123.191C241.275 125.976 236.371 128.233 230.323 128.233C224.274 128.233 219.371 125.976 219.371 123.191V90.3505C219.372 84.5059 220.91 78.7643 223.833 73.7021L226.55 69.0017V59.9107C226.55 58.237 228.241 56.8799 230.326 56.8799C232.41 56.8799 234.099 58.2384 234.099 59.9107V68.9977L236.817 73.698C239.739 78.7616 241.276 84.5048 241.275 90.3505Z" fill="white" stroke="#423C52" stroke-width="5" stroke-miterlimit="10"/>
<path d="M238.664 103.1V108.277" stroke="#423C52" stroke-width="5" stroke-miterlimit="10" stroke-linecap="round"/>
<path d="M234.201 73.698C237.125 78.761 238.664 84.5043 238.664 90.3504V98.4878" stroke="#423C52" stroke-width="5" stroke-miterlimit="10" stroke-linecap="round"/>
<path d="M230.323 62.2405C231.861 62.2405 233.109 61.2388 233.109 60.0031C233.109 58.7674 231.861 57.7656 230.323 57.7656C228.784 57.7656 227.537 58.7674 227.537 60.0031C227.537 61.2388 228.784 62.2405 230.323 62.2405Z" fill="#423C52"/>
<path d="M238.975 122.139C238.975 124.339 235.101 126.122 230.323 126.122C225.545 126.122 221.67 124.332 221.67 122.139C221.67 119.947 225.545 116.912 230.323 116.912C235.101 116.912 238.975 119.932 238.975 122.139Z" fill="white" stroke="#423C52" stroke-width="5" stroke-miterlimit="10"/>
<path d="M249.192 48.6597V58.6229C249.191 59.9048 248.833 61.1612 248.157 62.2504C247.481 63.3397 246.514 64.2185 245.365 64.7878L234.222 70.3142C232.837 71.0015 231.391 69.4991 232.13 68.1406L234.216 63.1522C234.527 62.4102 234.575 61.5844 234.352 60.8115L232.45 54.2907C232.195 53.8351 231.824 53.4556 231.374 53.1915C230.924 52.9273 230.411 52.7881 229.889 52.7882H225.834C225.382 52.788 224.933 52.877 224.515 53.0501C224.097 53.2231 223.717 53.4769 223.396 53.7968C223.076 54.1167 222.822 54.4966 222.649 54.9146C222.476 55.3327 222.387 55.7808 222.387 56.2334V58.6542L224.299 59.7043C225.488 60.4202 226.079 61.704 226.079 63.091V64.9413H220.779C214.874 64.9413 211.685 61.9227 208.517 56.9398L201.576 46.0161C203.673 42.0697 210.656 37.9507 219.504 35.8519C223.562 34.8887 227.461 34.4811 230.845 34.5708L246.148 43.3847C247.073 43.9197 247.842 44.6887 248.376 45.6147C248.911 46.5406 249.192 47.5908 249.192 48.6597Z" fill="#FFDB00"/>
<path d="M241.397 66.452C243.74 65.2905 245.221 63.1576 245.221 60.5439V53.6509" stroke="#423C52" stroke-width="5" stroke-linecap="round" stroke-linejoin="round"/>
<path d="M234.738 70.0356C237.081 68.8741 239.844 65.5893 239.844 62.9714V56.0825" stroke="#423C52" stroke-width="5" stroke-linecap="round" stroke-linejoin="round"/>
<path d="M225.992 25.5193C222.005 25.0588 216.943 25.4486 211.621 26.8058C204.011 28.7444 197.818 32.1691 194.96 35.636L180.208 12.35C176.967 6.72995 188.143 2.70473 198.924 3.691C207.452 4.4667 217.259 8.26369 219.522 13.2589L225.992 25.5193Z" fill="white" stroke="#FE552F" stroke-width="6" stroke-linejoin="round"/>
<path d="M184.365 5.55347V18.8613" stroke="#FE552F" stroke-width="6" stroke-linecap="round" stroke-linejoin="round"/>
<path d="M189.102 4.33069V26.2853" stroke="#FE552F" stroke-width="6" stroke-linecap="round" stroke-linejoin="round"/>
<path d="M193.841 3.65161V33.7097" stroke="#FE552F" stroke-width="6" stroke-linecap="round" stroke-linejoin="round"/>
<path d="M198.578 3.78748V32.3688" stroke="#FE552F" stroke-width="6" stroke-linecap="round" stroke-linejoin="round"/>
<path d="M203.315 4.33069V29.7875" stroke="#FE552F" stroke-width="6" stroke-linecap="round" stroke-linejoin="round"/>
<path d="M208.052 5.68909V28.0214" stroke="#FE552F" stroke-width="6" stroke-linecap="round" stroke-linejoin="round"/>
<path d="M212.791 7.45532V26.5272" stroke="#FE552F" stroke-width="6" stroke-linecap="round" stroke-linejoin="round"/>
<path d="M217.528 10.7157V25.7121" stroke="#FE552F" stroke-width="6" stroke-linecap="round" stroke-linejoin="round"/>
<path d="M222.266 18.6182V25.3889" stroke="#FE552F" stroke-width="6" stroke-linecap="round" stroke-linejoin="round"/>
<path d="M230.832 34.5654C227.45 34.4771 223.55 34.8847 219.492 35.8478C210.645 37.9467 203.66 42.0657 201.562 46.0121L194.963 35.6291C197.817 32.169 204.016 28.7443 211.625 26.8057C216.947 25.4472 222.007 25.0573 225.996 25.5192L230.748 34.5165L230.832 34.5654Z" fill="white" stroke="#FE552F" stroke-width="6" stroke-linejoin="round"/>
<path d="M223.197 31.377C224.135 31.377 224.897 30.6161 224.897 29.6775C224.897 28.7389 224.135 27.978 223.197 27.978C222.258 27.978 221.496 28.7389 221.496 29.6775C221.496 30.6161 222.258 31.377 223.197 31.377Z" stroke="#FE552F" stroke-width="6" stroke-linecap="round" stroke-linejoin="round"/>
<path d="M128.378 84.9288V122.077C128.378 123.089 128.781 124.06 129.497 124.776C130.213 125.492 131.184 125.894 132.196 125.894H127.856C126.021 125.894 124.262 125.166 122.965 123.869C121.668 122.572 120.939 120.813 120.939 118.979V107.622L120.204 109.388C119.68 110.639 118.691 111.638 117.445 112.173C116.199 112.709 114.793 112.739 113.525 112.259C112.257 111.778 111.225 110.824 110.647 109.597C110.069 108.37 109.99 106.967 110.428 105.684L110.563 105.276C110.563 105.969 110.839 106.634 111.329 107.124C111.82 107.615 112.485 107.89 113.178 107.89H113.45C114.144 107.89 114.809 107.615 115.3 107.124C115.79 106.634 116.066 105.968 116.066 105.275V75.2821C116.066 73.4172 116.807 71.6287 118.126 70.31C119.445 68.9913 121.234 68.2505 123.1 68.2505V60.9486H127.698V68.2492C128.453 68.2483 129.201 68.3961 129.898 68.6842C130.596 68.9723 131.23 69.3951 131.764 69.9283C132.298 70.4614 132.721 71.0946 133.01 71.7916C133.299 72.4886 133.448 73.2357 133.448 73.9902V87.6199C133.448 90.7757 133.838 100.092 138.437 100.001C138.437 100.001 137.942 96.8862 141.097 96.9446C145.696 97.0289 145.293 105.624 137.17 105.681C129.235 105.737 128.148 95.6568 128.378 84.9288Z" fill="#FFDB00"/>
<path d="M120.674 109.252V74.8635C120.674 73.7922 120.924 72.7358 121.406 71.7787C121.887 70.8215 122.585 69.99 123.445 69.3507" stroke="white" stroke-width="5" stroke-linecap="round" stroke-linejoin="round"/>
<path d="M138.026 99.4525C137.943 101.469 141.5 101.979 141.5 99.9959" stroke="white" stroke-width="5" stroke-linecap="round" stroke-linejoin="round"/>
<path d="M86.4001 51.9241C86.4001 61.3412 83.5273 68.9841 79.9737 69.0615C76.42 68.9841 73.5472 61.3412 73.5472 51.9241C73.5472 42.5071 76.42 34.8628 79.9737 34.7881C83.5273 34.8628 86.4001 42.5057 86.4001 51.9241Z" fill="#423C52"/>
<path d="M67.1779 68.757C63.5971 68.757 60.6944 61.2201 60.6944 51.9239C60.6944 42.6278 63.5984 35.0895 67.1779 35.0895H79.8486C76.2678 35.0895 73.3651 42.6264 73.3651 51.9239C73.3651 61.2215 76.2678 68.757 79.8486 68.757H67.1779Z" fill="white" stroke="#423C52" stroke-width="5" stroke-miterlimit="10"/>
<path d="M67.1779 35.0896C67.1779 35.0896 65.4276 31.0318 48.0277 29.9274C48.0277 29.9274 35.2441 36.2484 28.9305 51.1715C22.5992 66.138 27.6436 74.8637 27.6436 74.8637C49.0265 76.2439 67.1779 68.7586 67.1779 68.7586" stroke="#423C52" stroke-width="5" stroke-linecap="round" stroke-linejoin="round"/>
<path d="M62.7409 39.6502C62.7409 39.6502 59.4795 37.9167 53.1033 37.5798" stroke="#423C52" stroke-width="5" stroke-linecap="round" stroke-linejoin="round"/>
<path d="M62.0533 41.6117H56.3267" stroke="#423C52" stroke-width="5" stroke-linecap="round" stroke-linejoin="round"/>
<path d="M61.5396 60.4976C59.8945 61.4157 58.1781 62.1999 56.4069 62.8423" stroke="#423C52" stroke-width="5" stroke-linecap="round" stroke-linejoin="round"/>
<path d="M51.4346 59.2802H61.3453" stroke="#423C52" stroke-width="5" stroke-linecap="round" stroke-linejoin="round"/>
<path d="M142.736 51.1566H138.66V57.5144C138.66 57.8152 138.593 58.1123 138.464 58.3841C138.336 58.656 138.148 58.8958 137.915 59.0861L130.759 65.0458C130.526 65.2568 130.242 65.4039 129.936 65.4729C129.629 65.5419 129.31 65.5304 129.009 65.4396C128.708 65.3489 128.436 65.1818 128.218 64.9548C128.001 64.7277 127.846 64.4483 127.769 64.1438L126.381 58.6039C126.04 57.3796 125.307 56.3008 124.294 55.5326C123.281 54.7644 122.045 54.3492 120.773 54.3504H117.013C116.257 54.3503 115.529 54.632 114.97 55.1406C114.411 55.6492 114.062 56.3479 113.991 57.1001C113.92 57.8523 114.133 58.6038 114.587 59.2076C115.042 59.8113 115.705 60.2239 116.448 60.3645L118.784 60.8073C120.056 61.049 121.204 61.7271 122.03 62.7246C122.856 63.722 123.308 64.9764 123.308 66.2712H83.7624C80.9766 66.2712 77.003 59.8211 76.3453 51.9269C75.5422 42.2693 77.4175 37.5825 80.2033 37.5825H113.715C115.073 37.5821 116.424 37.777 117.726 38.1612L129.116 41.173C130.589 41.6064 131.626 42.1593 132.884 43.0396L143.219 49.3512C143.403 49.4574 143.548 49.6217 143.629 49.8184C143.711 50.015 143.726 50.2332 143.671 50.439C143.616 50.6447 143.494 50.8266 143.325 50.9564C143.156 51.0861 142.949 51.1565 142.736 51.1566Z" fill="#EB7500"/>
<path d="M130.964 42.2666L137.373 49.3009C137.974 49.9608 138.307 50.8211 138.308 51.7136V57.2834" stroke="#423C52" stroke-width="5" stroke-linecap="round" stroke-linejoin="round"/>
<path d="M128.947 47.0148L134.168 52.8563C134.77 53.5163 135.104 54.3773 135.103 55.2703V60.8334" stroke="#423C52" stroke-width="5" stroke-linecap="round" stroke-linejoin="round"/>
<path d="M125.625 49.8579L130.847 55.6994C131.448 56.3599 131.781 57.2206 131.782 58.1135V63.6765" stroke="#423C52" stroke-width="5" stroke-linecap="round" stroke-linejoin="round"/>
</svg>
