<svg width="566" height="390" viewBox="0 0 566 390" fill="none" xmlns="http://www.w3.org/2000/svg">
<path d="M354.485 390C433.05 390 496.739 385.661 496.739 380.309C496.739 374.956 433.05 370.617 354.485 370.617C275.921 370.617 212.232 374.956 212.232 380.309C212.232 385.661 275.921 390 354.485 390Z" fill="#B59B00"/>
<path d="M491.415 313.876C541.222 310.497 544.656 290.858 544.656 290.858C544.656 290.858 433.582 288.102 317.027 287.967C186.943 287.815 60.4049 294.965 53.3847 302.969C44.5451 313.038 215.414 320.178 220.219 315.272C223.962 311.45 211.483 308.824 199.004 305.594C191.169 303.564 206.954 288.819 351.632 301.127C411.365 306.212 452.731 316.502 491.415 313.876Z" fill="#907B00"/>
<path d="M234.606 306.631C245.546 306.631 254.416 305.291 254.416 303.637C254.416 301.984 245.546 300.643 234.606 300.643C223.665 300.643 214.795 301.984 214.795 303.637C214.795 305.291 223.665 306.631 234.606 306.631Z" fill="#907B00"/>
<path d="M502.356 266.194C502.367 274.15 501.64 282.09 500.184 289.919C473.483 289.415 436.79 288.817 395.82 288.417C394.547 281.074 393.911 273.64 393.921 266.194C393.921 219.586 418.194 181.803 448.14 181.803C478.086 181.803 502.356 219.586 502.356 266.194Z" fill="#C8D9D2"/>
<path d="M192.238 290.025C134.124 292.053 86.8436 295.4 65.4445 299.228C72.9332 287.675 98.7984 267.411 131.359 262.655C167.174 257.422 187.625 268.934 192.238 290.025Z" fill="#C8D9D2"/>
<path d="M546.727 278.198C546.731 282.5 546.01 286.774 544.595 290.85H544.154H544.131C535.775 290.646 428.927 288.102 317.028 287.976C268.491 287.921 220.448 288.889 178.922 290.524C181.676 286.166 187.816 283.13 194.949 283.13C198.433 283.13 201.687 283.855 204.411 285.108C203.656 280.687 204.418 276.147 206.58 272.187C208.741 268.228 212.183 265.067 216.376 263.191C220.568 261.316 225.279 260.83 229.784 261.807C234.289 262.785 238.338 265.173 241.309 268.603C241.449 268.764 241.585 268.927 241.718 269.092C241.801 268.928 241.886 268.765 241.972 268.603C250.154 253.084 270.178 242.109 293.585 242.109C319.113 242.109 340.619 255.156 347.122 272.932C350.902 269.491 355.856 267.523 361.037 267.405C366.218 267.287 371.262 269.028 375.203 272.295C384.701 262.876 399.125 256.866 415.276 256.866C433.071 256.866 448.771 264.169 458.094 275.275C459.714 253.895 478.91 237.018 502.354 237.018C526.861 237.006 546.727 255.444 546.727 278.198Z" fill="#B59B00"/>
<path d="M528.061 55.5648H352.085C352.085 50.2033 357.909 41.5678 386.197 52.0807C386.197 52.0807 386.921 39.9171 401.294 43.9503C418.233 48.7032 405.337 30.4996 419.954 27.7596C427.538 26.3386 431.707 30.3459 434.709 33.6474C436.152 14.8459 453.447 0 474.574 0C496.644 0 514.533 16.206 514.533 36.1988C514.533 37.4251 514.465 38.6506 514.331 39.8699C516.59 37.1892 521.588 34.7915 528.406 34.9467C528.561 34.9467 528.718 34.9528 528.876 34.9649C542.687 35.7348 541.901 55.5648 528.061 55.5648Z" fill="#E5F1EF"/>
<path d="M57.2051 356.194L32.0356 332.797C31.4185 332.223 30.691 331.773 29.8947 331.473C29.0984 331.173 28.2489 331.028 27.3948 331.047C26.5408 331.066 25.6989 331.248 24.9174 331.583C24.1359 331.918 23.4301 332.399 22.8404 332.999L6.38671 349.734C1.18264 355.03 5.04848 363.8 12.5874 363.8H58.4462L57.2051 356.194Z" fill="white" stroke="#DBE5E5" stroke-width="6" stroke-miterlimit="10"/>
<path d="M120.115 357.912L79.4395 362.094L68.0974 331.362L100.221 320.983C101.62 320.53 103.146 320.624 104.475 321.244C105.804 321.864 106.833 322.961 107.343 324.304L120.115 357.912Z" fill="#A0505A"/>
<path d="M130.927 342.885L131.554 342.196C131.379 342.453 131.168 342.685 130.927 342.885Z" stroke="#FFE700" stroke-width="5" stroke-linecap="round" stroke-linejoin="round"/>
<path d="M158.582 346.176L174.684 366.563C176.049 368.291 173.812 372.192 169.684 375.258C165.556 378.323 161.103 379.422 159.738 377.692L143.635 357.305C140.759 353.649 138.987 349.287 138.519 344.708L138.066 340.41L133.611 334.771C132.792 333.732 133.279 332.033 134.708 330.968C136.137 329.903 137.949 329.892 138.77 330.931L143.223 336.568L147.381 338.114C151.813 339.74 155.691 342.531 158.582 346.176Z" fill="#423C52"/>
<path d="M64.6892 329.841L57.8131 345.412C56.992 347.27 52.0621 347.002 46.8032 344.813C41.5443 342.623 37.9449 339.336 38.7644 337.483L45.6421 321.911C44.8836 323.773 48.4627 327.027 53.6934 329.203C58.9241 331.379 63.8195 331.656 64.686 329.837L64.6892 329.841Z" stroke="#907B00" stroke-width="5" stroke-linecap="round" stroke-linejoin="round"/>
<path d="M64.7064 329.806L64.6876 329.841C63.821 331.659 58.9225 331.382 53.695 329.206C48.4674 327.031 44.8852 323.776 45.6436 321.914C45.6476 321.901 45.6523 321.888 45.6577 321.876C46.4788 320.018 51.4071 320.286 56.6676 322.475C61.9281 324.665 65.5259 327.948 64.7064 329.806Z" stroke="#907B00" stroke-width="5" stroke-miterlimit="10" stroke-linecap="round"/>
<path d="M64.7164 329.572C66.0216 328.234 63.7115 324.052 59.5566 320.231C55.4018 316.409 50.9755 314.396 49.6703 315.734C48.365 317.072 50.6751 321.254 54.83 325.075C58.9848 328.896 63.4111 330.91 64.7164 329.572Z" fill="white" stroke="#907B00" stroke-width="5" stroke-miterlimit="10" stroke-linecap="round"/>
<path d="M130.927 342.885L131.554 342.196C133.353 339.568 132.024 334.24 127.762 331.491C123.499 328.742 117.927 329.617 116.13 332.252C116.13 332.252 116.13 332.252 116.13 332.262L115.725 333.069C114.893 335.555 117.43 338.538 121.26 341.009C125.09 343.48 128.89 344.586 130.927 342.885ZM126.771 332.932C127.845 333.626 128.396 334.653 128.005 335.228C127.613 335.803 126.422 335.705 125.341 335.013C124.259 334.321 123.716 333.292 124.107 332.717C124.499 332.142 125.693 332.24 126.768 332.932H126.771Z" stroke="#FFE700" stroke-width="5" stroke-linecap="round" stroke-linejoin="round"/>
<path d="M125.344 335.013C124.27 334.32 123.719 333.293 124.11 332.718C124.502 332.142 125.693 332.24 126.774 332.932C127.856 333.624 128.399 334.653 128.008 335.228C127.616 335.803 126.419 335.706 125.344 335.013Z" stroke="#FFE700" stroke-width="5" stroke-linecap="round" stroke-linejoin="round"/>
<path d="M125.344 335.013C124.27 334.32 123.719 333.293 124.11 332.718C124.502 332.142 125.693 332.24 126.774 332.932C127.856 333.624 128.399 334.653 128.008 335.228C127.616 335.803 126.419 335.706 125.344 335.013Z" stroke="#FFE700" stroke-width="5" stroke-linecap="round" stroke-linejoin="round"/>
<path d="M113.89 353.41L130.383 327.82C130.648 327.412 131.022 327.083 131.466 326.869C131.911 326.654 132.407 326.562 132.901 326.603L142.49 327.412" stroke="#FE552F" stroke-width="5" stroke-miterlimit="10" stroke-linecap="round"/>
<path d="M108.989 358.913C106.445 357.27 105.023 354.91 105.541 353.363L105.765 352.914L115.708 333.069C114.876 335.555 117.413 338.539 121.243 341.009C125.073 343.48 128.89 344.586 130.927 342.885L115.94 359.469L115.602 359.844C114.326 360.914 111.532 360.555 108.989 358.913Z" stroke="#FFE700" stroke-width="5" stroke-linecap="round" stroke-linejoin="round"/>
<path d="M12.6626 364.358C12.6626 364.299 12.6626 364.239 12.6626 364.18C12.6626 359.339 17.1145 355.417 22.6053 355.417C24.5811 355.408 26.5203 355.935 28.2043 356.938C28.3455 354.412 29.1732 351.968 30.6032 349.853C32.0331 347.739 34.0143 346.029 36.3453 344.899C38.6763 343.769 41.2739 343.259 43.8741 343.42C46.4742 343.581 48.9841 344.407 51.1485 345.815C52.5416 337.508 61.1869 331.115 71.6389 331.115C83.064 331.115 92.3235 338.757 92.3235 348.181C92.3233 348.928 92.2641 349.673 92.1464 350.411C92.841 350.31 93.5423 350.259 94.2447 350.259C96.8004 350.258 99.3057 350.95 101.479 352.256C103.652 353.562 105.407 355.43 106.546 357.652L106.286 357.712H116.611C117.199 354.49 118.879 351.55 121.384 349.36C123.889 347.169 127.076 345.855 130.439 345.624C133.802 345.393 137.148 346.26 139.945 348.086C142.743 349.912 144.832 352.594 145.881 355.704C147.782 354.745 149.871 354.189 152.01 354.072C154.148 353.956 156.288 354.281 158.288 355.027C160.288 355.773 162.101 356.922 163.609 358.399C165.117 359.877 166.285 361.648 167.036 363.596V364.356L12.6626 364.358Z" fill="#C8D9D2"/>
<path d="M170.207 362.551V361.509C170.207 360.881 169.951 360.279 169.494 359.836C169.037 359.392 168.417 359.143 167.771 359.143H163.842C163.196 359.143 162.576 359.392 162.119 359.836C161.662 360.279 161.405 360.881 161.405 361.509V380.678C161.405 381.306 161.662 381.908 162.119 382.352C162.576 382.796 163.196 383.045 163.842 383.046H167.771C168.417 383.045 169.037 382.796 169.494 382.352C169.951 381.908 170.207 381.306 170.207 380.678V379.638C170.207 380.085 170.298 380.528 170.475 380.942C170.651 381.355 170.91 381.731 171.236 382.047C171.561 382.364 171.948 382.615 172.374 382.786C172.8 382.958 173.257 383.046 173.718 383.046H175.929C177.556 383.046 179.117 382.418 180.268 381.301C181.419 380.183 182.065 378.668 182.065 377.088V374.745H187.214H187.352C188.827 374.745 190.016 373.111 190.016 371.093C190.016 369.076 188.82 367.442 187.352 367.442H187.214H182.065V365.099C182.065 363.519 181.419 362.004 180.268 360.886C179.117 359.769 177.556 359.141 175.929 359.141H173.718C173.256 359.141 172.8 359.23 172.374 359.401C171.948 359.572 171.561 359.823 171.235 360.14C170.909 360.457 170.65 360.833 170.474 361.246C170.298 361.66 170.207 362.103 170.207 362.551ZM188.071 368.522C189.129 368.522 189.988 369.672 189.988 371.092C189.988 372.511 189.129 373.659 188.071 373.659C187.014 373.659 186.152 372.508 186.152 371.092C186.152 369.676 187.007 368.525 188.068 368.525L188.071 368.522ZM182.236 374.737C180.73 374.737 179.509 373.105 179.509 371.086C179.509 369.067 180.73 367.435 182.236 367.435" fill="white"/>
<path d="M182.236 374.737C180.73 374.737 179.509 373.105 179.509 371.086C179.509 369.067 180.73 367.435 182.236 367.435M170.207 362.551V361.509C170.207 360.881 169.951 360.279 169.494 359.836C169.037 359.392 168.417 359.143 167.771 359.143H163.842C163.196 359.143 162.576 359.392 162.119 359.836C161.662 360.279 161.405 360.881 161.405 361.509V380.678C161.405 381.306 161.662 381.908 162.119 382.352C162.576 382.796 163.196 383.045 163.842 383.046H167.771C168.417 383.045 169.037 382.796 169.494 382.352C169.951 381.908 170.207 381.306 170.207 380.678V379.638C170.207 380.085 170.298 380.528 170.475 380.942C170.651 381.355 170.91 381.731 171.236 382.047C171.561 382.364 171.948 382.615 172.374 382.786C172.8 382.958 173.257 383.046 173.718 383.046H175.929C177.556 383.046 179.117 382.418 180.268 381.301C181.419 380.183 182.065 378.668 182.065 377.088V374.745H187.214H187.352C188.827 374.745 190.016 373.111 190.016 371.093C190.016 369.076 188.82 367.442 187.352 367.442H187.214H182.065V365.099C182.065 363.519 181.419 362.004 180.268 360.886C179.117 359.769 177.556 359.141 175.929 359.141H173.718C173.256 359.141 172.8 359.23 172.374 359.401C171.948 359.572 171.561 359.823 171.235 360.14C170.909 360.457 170.65 360.833 170.474 361.246C170.298 361.66 170.207 362.103 170.207 362.551ZM188.071 368.522C189.129 368.522 189.988 369.672 189.988 371.092C189.988 372.511 189.129 373.659 188.071 373.659C187.014 373.659 186.152 372.508 186.152 371.092C186.152 369.676 187.007 368.525 188.068 368.525L188.071 368.522Z" stroke="#C8D9D2" stroke-width="6" stroke-miterlimit="10"/>
<path d="M157.991 359.146H129.83C129.626 359.144 129.423 359.182 129.234 359.256C129.044 359.331 128.872 359.441 128.727 359.58C128.581 359.719 128.465 359.885 128.386 360.067C128.306 360.25 128.264 360.446 128.263 360.645V362.429C128.264 362.712 128.348 362.988 128.505 363.226C128.661 363.465 128.884 363.655 129.147 363.776C129.244 363.803 129.336 363.838 129.43 363.873C129.914 364.091 130.323 364.44 130.607 364.878C130.891 365.317 131.038 365.826 131.03 366.343C131.022 366.861 130.86 367.366 130.563 367.796C130.266 368.226 129.847 368.564 129.357 368.767H129.34L129.238 368.805C129.229 368.807 129.22 368.809 129.213 368.813C128.93 368.924 128.688 369.115 128.518 369.361C128.347 369.607 128.256 369.897 128.257 370.193V371.984C128.257 372.274 128.345 372.558 128.508 372.801C128.672 373.045 128.906 373.236 129.18 373.353C129.246 373.372 129.31 373.395 129.374 373.421C129.864 373.629 130.281 373.971 130.575 374.406C130.868 374.84 131.025 375.347 131.026 375.867C131.028 376.386 130.873 376.895 130.582 377.33C130.291 377.766 129.876 378.11 129.387 378.32C129.318 378.349 129.247 378.374 129.175 378.395C129.175 378.395 129.175 378.395 129.167 378.395C128.997 378.469 128.841 378.572 128.708 378.699C128.563 378.838 128.447 379.004 128.369 379.187C128.291 379.37 128.251 379.566 128.252 379.764V381.547C128.254 381.745 128.296 381.941 128.375 382.124C128.455 382.306 128.571 382.472 128.716 382.611C128.862 382.75 129.034 382.86 129.223 382.934C129.412 383.008 129.615 383.046 129.819 383.044H157.991C158.896 383.044 159.764 382.695 160.404 382.074C161.044 381.452 161.404 380.609 161.404 379.731V362.46C161.403 361.581 161.044 360.738 160.404 360.117C159.764 359.496 158.896 359.146 157.991 359.146Z" fill="white" stroke="#C8D9D2" stroke-width="6" stroke-miterlimit="10"/>
<path d="M170.207 361.986V380.675" stroke="#C8D9D2" stroke-width="6" stroke-miterlimit="10"/>
<path d="M44.9573 373.582C45.0104 373.582 45.062 373.582 45.1136 373.582H44.9573Z" stroke="#B59B00" stroke-width="6" stroke-miterlimit="10"/>
<path d="M44.7579 356.115C44.7032 356.115 44.6485 356.115 44.6016 356.124L44.7579 356.115Z" stroke="#B59B00" stroke-width="6" stroke-miterlimit="10"/>
<path d="M73.5992 364.416C73.7356 369.42 71.2895 373.354 68.1727 373.392L45.2112 373.681C48.3107 373.614 50.7412 369.692 50.6017 364.705C50.4622 359.718 47.7576 356.057 44.6611 356.059L67.6195 355.768C70.7285 355.73 73.4598 359.412 73.5992 364.416Z" stroke="#B59B00" stroke-width="6" stroke-miterlimit="10"/>
<path d="M50.608 364.74C50.7067 369.546 48.2825 373.496 45.1876 373.582H45.114C45.0623 373.582 45.0106 373.582 44.9573 373.582C41.933 373.482 39.4367 369.681 39.338 364.961C39.2393 360.24 41.5788 356.343 44.5953 356.124C44.6486 356.124 44.7034 356.117 44.752 356.115H44.8319C47.9299 356.091 50.5092 359.938 50.608 364.74Z" stroke="#B59B00" stroke-width="6" stroke-miterlimit="10"/>
<path d="M88.1208 375.496C87.803 375.793 87.4155 376.009 86.992 376.126C86.5685 376.244 86.1219 376.259 85.691 376.17C85.2601 376.082 84.858 375.892 84.5198 375.618C84.1816 375.345 83.9174 374.994 83.7504 374.599C83.4871 373.987 83.177 373.395 82.8227 372.828C82.305 372 81.7062 371.223 81.0347 370.506C77.4071 366.628 72.4161 365.203 69.4811 367.077L69.4655 367.065C69.8355 366.232 70.3898 365.488 71.0889 364.886C72.2375 363.874 73.5789 363.336 74.6711 363.348C74.9121 362.828 75.2616 362.361 75.6975 361.979C76.3275 361.408 77.1293 361.048 77.9853 360.952C77.8521 359.803 78.5573 358.297 79.9018 357.112C81.1303 356.027 82.5814 355.487 83.7112 355.59C83.9188 354.696 84.4125 353.889 85.1215 353.284C85.496 352.952 85.9223 352.679 86.3845 352.476C86.3845 352.476 83.8569 364.807 97.2424 364.389C97.2502 364.55 97.2549 364.714 97.2549 364.876V364.885C97.15 365.667 95.8822 368.273 95.0611 368.992L88.1208 375.496Z" fill="#FFE700"/>
<path d="M76.4669 358.338L71.3819 352.902" stroke="#907B00" stroke-width="5" stroke-linecap="round" stroke-linejoin="round"/>
<path d="M76.763 346.316C77.3985 347.061 77.8494 347.938 78.0808 348.879C78.3123 349.821 78.3182 350.801 78.0981 351.744C77.878 352.688 77.4378 353.57 76.8113 354.323C76.1848 355.075 75.3888 355.678 74.4846 356.085C73.8497 355.339 73.3994 354.462 73.1682 353.521C72.9371 352.58 72.9314 351.6 73.1514 350.657C73.3715 349.713 73.8115 348.831 74.4376 348.079C75.0637 347.326 75.8592 346.723 76.763 346.316Z" fill="#907B00"/>
<path d="M86.3861 352.477C85.9239 352.68 85.4976 352.953 85.1231 353.285C84.4141 353.89 83.9204 354.698 83.7128 355.592C82.583 355.493 81.1319 356.033 79.9034 357.113C78.5589 358.298 77.8537 359.804 77.9869 360.953C77.9869 360.953 78.0668 361.906 76.5766 362.92C76.3063 363.115 75.9975 363.253 75.6695 363.326C75.3415 363.398 75.0016 363.404 74.6711 363.343C73.5742 363.331 72.2375 363.87 71.0889 364.881C70.3998 365.476 69.8509 366.207 69.4796 367.027C69.3511 364.419 70.2302 361.966 72.1435 360.276C73.3496 359.222 74.8544 358.545 76.4622 358.333C76.8344 356.801 77.6724 355.412 78.8676 354.347C80.8718 352.588 83.6031 351.998 86.3861 352.477Z" fill="#FE552F"/>
<path d="M89.0876 375.152C90.487 374.051 90.0122 373.696 91.5212 372.758C91.7892 372.59 92.0618 372.43 92.3423 372.283C92.9816 371.944 93.5771 371.532 94.1162 371.057C96.0546 369.35 97.0841 366.981 97.233 364.411C97.233 364.396 97.2276 364.381 97.2177 364.369C97.2077 364.357 97.1938 364.349 97.1783 364.347C97.1629 364.344 97.1469 364.346 97.1331 364.353C97.1194 364.361 97.1087 364.373 97.1029 364.387C96.782 365.215 96.2628 365.958 95.5882 366.553C94.9136 367.148 94.1029 367.579 93.223 367.81C93.1621 367.824 93.1051 367.851 93.0558 367.888C93.0065 367.926 92.966 367.973 92.9371 368.027C92.9081 368.081 92.8914 368.14 92.888 368.201C92.8846 368.262 92.8946 368.322 92.9174 368.379C93.2653 369.312 92.8485 370.58 91.8095 371.496C90.7706 372.412 89.459 372.689 88.5298 372.28C88.473 372.255 88.4114 372.243 88.3493 372.244C88.2871 372.245 88.226 372.26 88.1703 372.286C88.1146 372.313 88.0657 372.352 88.0271 372.399C87.9884 372.446 87.961 372.501 87.9468 372.56C87.8074 373.117 87.3921 373.759 86.7669 374.309C85.7514 375.204 84.5417 375.542 83.9462 375.123C83.9525 375.123 85.496 377.981 89.0876 375.152Z" fill="#FE552F"/>
<path d="M178.411 188.07C209.031 188.07 233.853 147.568 233.853 97.6057C233.853 47.6437 209.031 7.14148 178.411 7.14148C147.791 7.14148 122.968 47.6437 122.968 97.6057C122.968 147.568 147.791 188.07 178.411 188.07Z" fill="#907B00"/>
<path d="M196.861 33.684C197.879 37.8329 196.605 41.7824 193.984 43.2095C192.787 41.8201 191.948 40.1743 191.536 38.408C190.519 34.2591 191.79 30.3126 194.415 28.884C195.609 30.2738 196.448 31.9188 196.861 33.684Z" fill="#B59B00"/>
<path d="M202.656 44.2395C200.876 46.5901 198.19 47.6916 196.264 46.9932C196.482 45.7731 196.995 44.6207 197.762 43.6309C199.542 41.2819 202.226 40.1804 204.154 40.8787C203.935 42.0982 203.422 43.25 202.656 44.2395Z" fill="#B59B00"/>
<path d="M215.662 70.5141C215.068 74.0894 212.744 76.7838 210.209 77.0744C209.735 75.6066 209.628 74.0506 209.895 72.5346C210.489 68.9592 212.811 66.2664 215.348 65.9773C215.821 67.4443 215.928 68.9991 215.662 70.5141Z" fill="#B59B00"/>
<path d="M217.298 79.6547C214.996 80.6253 212.581 80.3241 211.5 79.0339C212.186 78.2431 213.056 77.6212 214.037 77.2189C216.339 76.2498 218.752 76.551 219.835 77.8412C219.149 78.6318 218.279 79.2533 217.298 79.6547Z" fill="#B59B00"/>
<path d="M169.261 47.8056C169.261 51.212 167.921 54.127 166.02 55.335C164.12 54.1285 162.78 51.212 162.78 47.8056C162.78 44.3991 164.12 41.4841 166.02 40.2761C167.921 41.4856 169.261 44.4022 169.261 47.8056Z" fill="#B59B00"/>
<path d="M161.246 55.6288C162.932 57.99 163.439 60.6373 162.726 62.3625C160.81 62.4128 158.438 61.0146 156.751 58.6534C155.065 56.2921 154.558 53.6434 155.271 51.9196C157.187 51.8709 159.561 53.2676 161.246 55.6288Z" fill="#B59B00"/>
<path d="M147.624 133.217C150.164 132.476 152.629 132.784 153.943 133.858C153.458 135.455 151.574 137.033 149.034 137.774C146.494 138.515 144.027 138.207 142.713 137.133C143.2 135.534 145.085 133.958 147.624 133.217Z" fill="#B59B00"/>
<path d="M159.216 119.223C159.138 122.281 157.867 123.349 156.131 124.396C154.453 123.272 153.31 122.143 153.395 119.085C153.479 116.027 155.628 111.543 156.48 110.869C157.281 111.565 159.29 116.165 159.216 119.223Z" fill="#B59B00"/>
<path d="M168.932 107.052C168.854 110.11 167.583 111.178 165.846 112.225C164.168 111.101 163.026 109.972 163.11 106.914C163.195 103.856 165.343 99.3721 166.196 98.6981C166.997 99.3934 169.006 103.994 168.932 107.052Z" fill="#B59B00"/>
<path d="M189.855 201.506C189.775 204.564 188.504 205.632 186.769 206.678C185.089 205.553 183.949 204.425 184.032 201.367C184.115 198.309 186.266 193.826 187.119 193.152C187.919 193.845 189.933 198.446 189.855 201.506Z" fill="#B59B00"/>
<path d="M170.474 237.898C172.072 240.534 171.571 242.094 170.671 243.869C168.634 243.778 167.055 243.403 165.455 240.767C163.855 238.13 163.242 233.219 163.599 232.212C164.659 232.392 168.874 235.261 170.474 237.898Z" fill="#B59B00"/>
<path d="M123.158 139.601C124.739 142.247 124.23 143.803 123.314 145.574C121.277 145.468 119.701 145.083 118.121 142.437C116.542 139.791 115.96 134.874 116.326 133.868C117.382 134.056 121.577 136.954 123.158 139.601Z" fill="#B59B00"/>
<path d="M192.683 210.514C191.202 211.837 190.132 211.746 188.867 211.436C188.653 210.188 188.681 209.18 190.163 207.856C191.646 206.532 194.72 205.499 195.418 205.574C195.444 206.246 194.164 209.193 192.683 210.514Z" fill="#B59B00"/>
<path d="M172.766 229.931C173.03 231.964 172.208 233.787 170.886 234.334C170.389 233.611 170.077 232.783 169.975 231.918C169.712 229.886 170.532 228.065 171.856 227.516C172.352 228.24 172.664 229.068 172.766 229.931Z" fill="#B59B00"/>
<path d="M177.377 290.596V24.3258" stroke="#B59B00" stroke-width="6" stroke-miterlimit="10"/>
<path d="M166.146 52.6528V77.9705C166.146 78.9868 166.352 79.9931 166.753 80.932C167.153 81.8709 167.74 82.724 168.481 83.4425C169.221 84.1611 170.1 84.731 171.067 85.1198C172.034 85.5085 173.07 85.7085 174.117 85.7083C174.981 85.7087 175.81 86.0423 176.421 86.6357C177.033 87.229 177.376 88.0337 177.377 88.8729" stroke="#B59B00" stroke-width="6" stroke-miterlimit="10"/>
<path d="M166.146 114.498V147.36C166.146 149.008 166.82 150.588 168.02 151.754C169.22 152.919 170.848 153.574 172.545 153.574C173.826 153.574 175.055 154.068 175.961 154.947C176.867 155.826 177.376 157.019 177.377 158.263" stroke="#B59B00" stroke-width="6" stroke-miterlimit="10"/>
<path d="M167.393 194.673C167.393 198.104 169.939 200.886 173.083 200.886C175.454 200.886 177.377 202.986 177.377 205.575" stroke="#B59B00" stroke-width="6" stroke-miterlimit="10"/>
<path d="M156.156 122.105V131.2C156.156 132.497 156.687 133.741 157.632 134.659C158.576 135.576 159.858 136.091 161.194 136.091H162.737C163.641 136.092 164.507 136.44 165.146 137.06C165.785 137.681 166.144 138.522 166.144 139.399" stroke="#B59B00" stroke-width="6" stroke-miterlimit="10"/>
<path d="M194.014 40.0206V54.9562C194.014 57.6952 192.893 60.322 190.898 62.2587C188.903 64.1954 186.198 65.2835 183.377 65.2835C182.589 65.2835 181.808 65.4342 181.08 65.7271C180.352 66.0199 179.691 66.4492 179.133 66.9903C178.576 67.5314 178.134 68.1738 177.833 68.8807C177.531 69.5877 177.376 70.3453 177.377 71.1105" stroke="#B59B00" stroke-width="6" stroke-miterlimit="10"/>
<path d="M162.726 62.3624L164.627 65.3808C165.62 66.9551 166.146 68.7653 166.146 70.6114" stroke="#B59B00" stroke-width="6" stroke-miterlimit="10"/>
<path d="M186.943 201.813V214.736C186.943 216.632 186.514 218.505 185.687 220.223C184.86 221.941 183.654 223.462 182.156 224.678L180.652 225.895C179.626 226.728 178.801 227.769 178.235 228.945C177.67 230.121 177.376 231.403 177.377 232.7" stroke="#B59B00" stroke-width="6" stroke-miterlimit="10"/>
<path d="M196.325 218.065C196.325 219.457 195.755 220.793 194.741 221.777C193.727 222.762 192.351 223.315 190.917 223.315H183.723" stroke="#B59B00" stroke-width="6" stroke-miterlimit="10" stroke-linecap="round"/>
<path d="M170.416 242.1V278.295C170.416 279.564 170.935 280.78 171.858 281.677C172.782 282.573 174.035 283.077 175.341 283.077C175.881 283.077 176.399 283.286 176.781 283.656C177.163 284.027 177.378 284.53 177.378 285.055" stroke="#B59B00" stroke-width="6" stroke-miterlimit="10"/>
<path d="M129.913 245.387C151.506 245.387 169.01 224.265 169.01 198.209C169.01 172.153 151.506 151.03 129.913 151.03C108.32 151.03 90.816 172.153 90.816 198.209C90.816 224.265 108.32 245.387 129.913 245.387Z" fill="#B59B00"/>
<path d="M142.531 179.757C143.349 183.086 142.687 186.288 141.041 188.161C140.886 188.332 140.693 188.464 140.475 188.548C140.258 188.631 140.024 188.664 139.791 188.643C139.559 188.622 139.335 188.548 139.137 188.426C138.94 188.305 138.775 188.14 138.656 187.945C137.989 186.871 137.5 185.702 137.206 184.481C136.189 180.332 137.461 176.386 140.085 174.957C141.28 176.346 142.118 177.992 142.531 179.757Z" fill="#907B00"/>
<path d="M106.362 244.502C109.199 247.04 110.264 250.524 109.073 252.81C107.501 252.367 106.06 251.568 104.868 250.478C102.033 247.939 100.967 244.458 102.158 242.17C103.73 242.614 105.171 243.413 106.362 244.502Z" fill="#907B00"/>
<path d="M102.13 252.579C104.238 252.689 105.939 253.796 106.259 255.166C105.436 255.511 104.541 255.662 103.647 255.607C101.541 255.497 99.8405 254.39 99.5208 253.02C100.342 252.676 101.237 252.524 102.13 252.579Z" fill="#B59B00"/>
<path d="M149.731 190.456C148.634 193.17 146.326 194.901 144.28 194.706C144.168 193.473 144.36 192.231 144.841 191.084C145.937 188.37 148.246 186.637 150.292 186.833C150.403 188.067 150.211 189.308 149.731 190.456Z" fill="#907B00"/>
<path d="M118.67 174.688C120.315 177.298 119.845 178.865 118.972 180.656C116.935 180.597 115.348 180.25 113.702 177.641C112.057 175.032 111.352 170.13 111.697 169.121C112.759 169.279 117.024 172.078 118.67 174.688Z" fill="#907B00"/>
<path d="M125.203 174.272C124.523 176.555 123.354 177.105 121.841 177.556C120.812 176.392 120.19 175.328 120.87 173.052C121.55 170.776 124.074 167.829 124.85 167.488C125.308 168.164 125.883 171.996 125.203 174.272Z" fill="#907B00"/>
<path d="M128.719 194.039V292.878" stroke="#907B00" stroke-width="6" stroke-miterlimit="10" stroke-linecap="round"/>
<path d="M139.793 190.996V202.134C139.794 206.089 138.299 209.907 135.594 212.864L131.927 216.872C129.86 219.131 128.719 222.048 128.719 225.069" stroke="#907B00" stroke-width="6" stroke-miterlimit="10" stroke-linecap="round"/>
<path d="M107.771 250.922C109.223 252.991 111.173 254.684 113.453 255.854C115.732 257.025 118.271 257.636 120.85 257.636H123.136C124.615 257.636 126.035 258.207 127.082 259.222C128.128 260.237 128.717 261.614 128.719 263.051" stroke="#907B00" stroke-width="6" stroke-miterlimit="10" stroke-linecap="round"/>
<path d="M144.62 196.468V199.055C144.62 199.324 144.565 199.59 144.459 199.839C144.353 200.088 144.198 200.314 144.002 200.505C143.806 200.695 143.573 200.846 143.317 200.949C143.061 201.052 142.786 201.105 142.509 201.105H141.45C141.03 201.105 140.628 201.267 140.331 201.555C140.035 201.843 139.868 202.233 139.868 202.641" stroke="#907B00" stroke-width="6" stroke-miterlimit="10" stroke-linecap="round"/>
<path d="M121.016 180.573V201.925C121.016 203.027 121.466 204.084 122.268 204.863C123.071 205.642 124.159 206.08 125.294 206.08C126.202 206.08 127.073 206.431 127.715 207.054C128.358 207.677 128.719 208.523 128.719 209.405" stroke="#907B00" stroke-width="6" stroke-miterlimit="10" stroke-linecap="round"/>
<path d="M138.485 244.523V246.063C138.485 247.264 137.993 248.416 137.118 249.265C136.243 250.115 135.057 250.592 133.82 250.592H131.397C130.688 250.592 130.007 250.866 129.506 251.353C129.004 251.84 128.722 252.5 128.722 253.189" stroke="#907B00" stroke-width="6" stroke-miterlimit="10" stroke-linecap="round"/>
<path d="M118.245 253.288C118.245 254.445 118.719 255.555 119.561 256.373C120.404 257.192 121.547 257.651 122.739 257.651" stroke="#907B00" stroke-width="6" stroke-miterlimit="10" stroke-linecap="round"/>
<path d="M116.219 184.8V189.476C116.219 190.242 116.533 190.978 117.091 191.52C117.649 192.062 118.407 192.366 119.196 192.366C119.435 192.366 119.672 192.411 119.893 192.499C120.114 192.587 120.315 192.717 120.484 192.881C120.653 193.045 120.787 193.24 120.878 193.455C120.97 193.669 121.016 193.899 121.016 194.131" stroke="#907B00" stroke-width="6" stroke-miterlimit="10" stroke-linecap="round"/>
<path d="M558.359 303.556C558.395 308.302 557.204 312.284 555.578 313.303C550.728 317.563 534.616 320.781 515.462 320.91C496.308 321.04 480.141 318.056 475.232 313.862C473.59 312.859 472.344 308.897 472.308 304.156C472.272 299.416 473.457 294.827 475.083 293.802C474.105 294.661 474.213 294.346 474.221 295.275C474.235 297.16 475.788 298.754 479.573 300.233C481.575 300.992 483.63 301.611 485.723 302.084C493.29 303.861 503.775 304.92 515.354 304.838C526.933 304.756 537.399 303.549 544.938 301.666C547.024 301.164 549.071 300.516 551.062 299.728C554.822 298.197 556.661 296.721 556.646 294.838C556.639 293.908 556.419 294.077 555.426 293.231C557.071 294.24 558.323 298.804 558.359 303.556Z" fill="#423C52" stroke="white" stroke-width="5" stroke-miterlimit="10" stroke-linecap="round"/>
<path d="M515.318 304.677C538.245 304.533 556.804 300.418 556.772 295.486C556.739 290.554 538.126 286.672 515.2 286.816C492.273 286.96 473.714 291.075 473.747 296.007C473.779 300.939 492.392 304.821 515.318 304.677Z" fill="#423C52" stroke="white" stroke-width="5" stroke-miterlimit="10" stroke-linecap="round"/>
<path d="M515.393 296.106C523.999 296.052 530.968 295.022 530.96 293.804C530.952 292.587 523.969 291.643 515.364 291.697C506.758 291.751 499.788 292.782 499.796 293.999C499.804 295.217 506.787 296.16 515.393 296.106Z" fill="#423C52" stroke="white" stroke-width="5" stroke-miterlimit="10" stroke-linecap="round"/>
<path d="M217.397 290.305L197.386 270.55L220.017 285.776L219.282 271.324L229.889 283.893L228.018 238.917L235.92 279.047L243.484 272.076L242.784 284.147L251.324 280.72L244.609 290.126L217.397 290.305Z" fill="#907B00"/>
<path d="M432.037 289.951L422.991 283.389L431.102 284.5L431.207 277.533L436.093 282.783L438.277 247.85L444.412 282.176L448.259 272.888L449.716 285.408L456.683 280.865L452.835 290.098L432.037 289.951Z" fill="#907B00"/>
<path d="M425.959 277.452C425.96 278.135 425.831 278.812 425.58 279.45C423.124 279.079 421.237 276.877 421.237 274.221C421.236 273.538 421.364 272.861 421.615 272.223C424.072 272.593 425.959 274.793 425.959 277.452Z" fill="#907B00"/>
<path d="M519.66 260.711C519.484 261.372 519.185 261.996 518.776 262.552C516.495 261.592 515.241 258.999 515.931 256.43C516.107 255.768 516.407 255.144 516.816 254.587C519.098 255.547 520.351 258.138 519.66 260.711Z" fill="#907B00"/>
<path d="M524.949 264.215C524.004 264.683 522.993 265.012 521.948 265.191C521.125 262.36 523.172 258.872 526.886 257.047C527.831 256.579 528.843 256.25 529.888 256.071C530.712 258.9 528.666 262.389 524.949 264.215Z" fill="#907B00"/>
<path d="M201.084 278.697C202.214 279.801 202.17 280.631 201.954 281.616C200.937 281.819 200.111 281.828 198.976 280.722C197.842 279.616 196.909 277.271 196.955 276.731C197.505 276.69 199.954 277.591 201.084 278.697Z" fill="#B59B00"/>
<path d="M562.04 302.128C561.488 302.401 560.898 302.593 560.288 302.697C559.809 301.045 561.003 299.008 563.171 297.943C563.723 297.67 564.314 297.478 564.923 297.372C565.406 299.024 564.207 301.061 562.04 302.128Z" fill="#907B00"/>
<path d="M546.221 320.085H526.285L515.816 314.43L535.091 318.669L527.255 310.223L534.819 313.707L534.099 303.546L539.572 312.659C539.625 312.755 539.71 312.831 539.813 312.874C539.915 312.918 540.03 312.927 540.138 312.899C540.247 312.872 540.343 312.81 540.41 312.723C540.478 312.637 540.514 312.531 540.512 312.422L537.322 267.442L545.673 301.271L553.285 280.09L551.013 311.626L566 304.825L554.614 316.058C553.628 317.311 552.358 318.326 550.903 319.024C549.447 319.723 547.845 320.086 546.221 320.085Z" fill="#907B00"/>
<path d="M250.86 275.806C249.379 277.131 248.309 277.039 247.045 276.73C246.83 275.481 246.858 274.474 248.339 273.15C249.82 271.826 252.897 270.793 253.595 270.868C253.624 271.54 252.341 274.483 250.86 275.806Z" fill="#907B00"/>
<path d="M400.976 112.993L377.751 81.7434C374.433 77.2785 370.071 73.6426 365.023 71.1351C359.974 68.6276 354.385 67.3202 348.714 67.3205H288.412C277.143 67.3209 266.134 70.6071 256.812 76.7532L224.027 98.3709C205.982 110.27 203.455 135.134 218.754 150.228L248.552 179.629L274.141 159.194L254.582 135.079C253.62 133.894 253.182 132.387 253.364 130.889C253.546 129.391 254.333 128.024 255.552 127.089L272.899 112.626C275.182 110.725 278.711 112.299 278.711 115.213V150.528H381.194C401.09 150.528 412.616 128.653 400.976 112.993ZM363.159 119.06H358.737V112.645C358.737 112.427 358.808 112.215 358.94 112.038C359.071 111.862 359.256 111.73 359.469 111.661C359.682 111.592 359.912 111.59 360.126 111.655C360.34 111.72 360.528 111.848 360.663 112.022L364.331 116.791C364.494 117.002 364.593 117.252 364.617 117.515C364.641 117.778 364.589 118.041 364.467 118.277C364.346 118.513 364.159 118.711 363.928 118.849C363.697 118.988 363.43 119.061 363.159 119.06Z" fill="#FF7500"/>
<path d="M336.38 67.3206H313.641L325.996 78.8848L336.38 67.3206Z" stroke="white" stroke-width="5" stroke-miterlimit="10" stroke-linecap="round"/>
<path d="M297.814 67.3206H320.553L308.199 78.8848L297.814 67.3206Z" stroke="white" stroke-width="5" stroke-miterlimit="10" stroke-linecap="round"/>
<path d="M212.99 111.688C217.232 113.78 220.424 119.479 220.7 126.293C220.998 133.686 217.773 140.03 213.137 141.976" stroke="white" stroke-width="5" stroke-miterlimit="10" stroke-linecap="round"/>
<path d="M404.309 119.175C400.449 120.819 396.82 124.833 394.88 130.158C392.686 136.167 393.26 142.189 395.933 145.767" stroke="white" stroke-width="5" stroke-miterlimit="10" stroke-linecap="round"/>
<path d="M264.011 172.086C271.194 166.326 275.497 160.787 274.141 159.194C272.786 157.601 266.284 160.563 259.098 166.315C251.912 172.068 247.189 178.03 248.549 179.631C249.909 181.231 256.829 177.852 264.011 172.086Z" fill="#C8D9D2"/>
<path d="M451.783 381.731C451.783 382.121 451.551 382.434 451.266 382.434H449.588C449.301 382.434 449.071 382.121 449.069 381.731C449.068 381.342 448.839 381.027 448.554 381.027H446.896C446.61 381.027 446.379 381.343 446.379 381.731C446.38 381.909 446.326 382.082 446.222 382.229C446.182 382.288 446.128 382.338 446.064 382.373C446.001 382.409 445.93 382.43 445.857 382.434H444.177C443.892 382.434 443.66 382.118 443.66 381.731C443.662 381.554 443.607 381.38 443.503 381.234C443.464 381.173 443.41 381.123 443.346 381.087C443.282 381.052 443.21 381.031 443.136 381.028H441.48C441.193 381.028 440.963 381.343 440.963 381.733C440.965 381.91 440.91 382.084 440.806 382.23C440.767 382.29 440.713 382.341 440.65 382.376C440.586 382.412 440.515 382.432 440.441 382.436H438.763C438.476 382.436 438.244 382.119 438.244 381.733C438.246 381.555 438.192 381.381 438.087 381.235C438.048 381.175 437.995 381.125 437.931 381.089C437.867 381.053 437.796 381.033 437.722 381.03H436.064C435.779 381.03 435.547 381.345 435.547 381.734C435.549 381.912 435.494 382.086 435.391 382.232C435.351 382.292 435.297 382.342 435.234 382.378C435.17 382.414 435.099 382.435 435.026 382.439H433.346C433.06 382.439 432.829 382.124 432.829 381.736C432.83 381.558 432.775 381.385 432.672 381.238C432.632 381.178 432.578 381.128 432.514 381.092C432.451 381.056 432.379 381.036 432.305 381.033H430.649C430.364 381.033 430.132 381.348 430.132 381.736C430.132 382.125 429.9 382.439 429.615 382.44H427.936C427.651 382.44 427.419 382.127 427.418 381.736C427.416 381.345 427.187 381.036 426.902 381.036H425.244C424.957 381.036 424.727 381.351 424.727 381.739C424.729 381.917 424.674 382.091 424.57 382.238C424.531 382.298 424.478 382.349 424.414 382.384C424.35 382.42 424.279 382.44 424.205 382.443H422.527C422.438 382.443 422.351 382.413 422.281 382.36C422.178 382.286 422.095 382.189 422.04 382.076C421.986 381.964 421.961 381.84 421.968 381.716C421.968 381.328 421.736 381.012 421.45 381.012H419.794C419.509 381.012 419.277 381.328 419.277 381.716C419.278 381.893 419.223 382.067 419.12 382.213C419.08 382.273 419.026 382.323 418.962 382.359C418.898 382.394 418.827 382.415 418.754 382.419H417.075C416.79 382.419 416.558 382.102 416.558 381.716C416.56 381.538 416.506 381.365 416.402 381.218C416.362 381.158 416.308 381.108 416.244 381.072C416.18 381.036 416.108 381.016 416.035 381.013H414.377C414.092 381.013 413.86 381.328 413.861 381.717C413.862 381.895 413.808 382.068 413.705 382.215C413.665 382.275 413.611 382.325 413.547 382.361C413.483 382.397 413.412 382.417 413.338 382.42H411.66C411.375 382.42 411.143 382.104 411.143 381.717C411.145 381.54 411.09 381.366 410.986 381.22C410.946 381.16 410.892 381.109 410.828 381.074C410.765 381.038 410.693 381.018 410.619 381.015H408.963C408.678 381.015 408.446 381.33 408.446 381.719C408.447 381.896 408.392 382.07 408.289 382.217C408.249 382.276 408.195 382.326 408.131 382.362C408.067 382.398 407.996 382.419 407.922 382.423H406.244C405.957 382.423 405.727 382.108 405.727 381.721C405.728 381.543 405.674 381.369 405.57 381.223C405.531 381.163 405.477 381.112 405.414 381.077C405.35 381.041 405.279 381.021 405.205 381.018H403.549C403.262 381.018 403.032 381.333 403.032 381.721C403.032 382.11 402.8 382.423 402.515 382.425H400.836C400.55 382.425 400.319 382.112 400.318 381.721C400.316 381.33 400.087 381.021 399.802 381.021H398.143C397.857 381.021 397.625 381.336 397.625 381.724C397.627 381.902 397.573 382.076 397.469 382.223C397.43 382.283 397.376 382.333 397.312 382.369C397.249 382.405 397.177 382.425 397.104 382.428H395.424C395.139 382.428 394.907 382.115 394.907 381.725L395.015 378.987H451.716L451.783 381.731Z" fill="white"/>
<path d="M451.749 379.084H398.492C395.178 379.084 394.404 377.094 393.23 374.085L379.879 339.864H425.727L433.225 361.684C434.585 365.642 437.209 369.077 440.715 371.491L451.749 379.084Z" fill="#423C52"/>
<path d="M322.39 339.864V375.239C322.39 376.259 321.973 377.236 321.231 377.957C320.488 378.678 319.482 379.083 318.432 379.084H265.822L271.501 374.473C273.771 372.63 275.596 370.326 276.849 367.723C278.102 365.121 278.752 362.283 278.753 359.411V339.864H322.39Z" fill="#423C52"/>
<path d="M265.658 381.818C265.658 382.207 265.888 382.522 266.172 382.522H267.844C268.129 382.522 268.358 382.209 268.359 381.819C268.361 381.43 268.589 381.117 268.873 381.117H270.523C270.807 381.117 271.039 381.432 271.039 381.819C271.035 381.996 271.087 382.17 271.188 382.317C271.227 382.377 271.28 382.427 271.344 382.463C271.407 382.499 271.478 382.52 271.551 382.524H273.223C273.508 382.524 273.739 382.209 273.739 381.821C273.737 381.643 273.791 381.47 273.895 381.323C273.934 381.263 273.988 381.213 274.052 381.177C274.115 381.141 274.187 381.121 274.26 381.118H275.909C276.194 381.118 276.423 381.433 276.423 381.823C276.421 382 276.476 382.174 276.58 382.32C276.619 382.38 276.672 382.43 276.735 382.466C276.799 382.502 276.87 382.522 276.943 382.525H278.614C278.899 382.525 279.131 382.21 279.131 381.823C279.13 381.645 279.184 381.471 279.287 381.325C279.327 381.265 279.38 381.215 279.443 381.179C279.507 381.143 279.578 381.123 279.651 381.12H281.303C281.586 381.12 281.817 381.435 281.817 381.824C281.815 382.002 281.869 382.175 281.973 382.322C282.012 382.382 282.066 382.432 282.129 382.468C282.192 382.504 282.264 382.525 282.337 382.528H284.009C284.293 382.528 284.524 382.214 284.524 381.826C284.523 381.648 284.578 381.474 284.681 381.328C284.72 381.268 284.774 381.218 284.838 381.182C284.901 381.146 284.973 381.126 285.046 381.123H286.695C286.98 381.123 287.21 381.439 287.21 381.827C287.21 382.215 287.441 382.528 287.724 382.53H289.396C289.68 382.53 289.91 382.217 289.912 381.827C289.913 381.438 290.142 381.126 290.426 381.126H292.076C292.361 381.126 292.591 381.441 292.591 381.829C292.59 382.007 292.645 382.181 292.748 382.328C292.787 382.388 292.84 382.438 292.904 382.474C292.967 382.51 293.038 382.53 293.112 382.533H294.782C294.872 382.532 294.958 382.502 295.028 382.448C295.131 382.374 295.214 382.277 295.269 382.164C295.323 382.052 295.348 381.928 295.342 381.804C295.342 381.416 295.572 381.101 295.856 381.101H297.506C297.789 381.101 298.02 381.416 298.02 381.804C298.019 381.982 298.073 382.155 298.176 382.302C298.216 382.362 298.269 382.412 298.333 382.448C298.396 382.484 298.468 382.505 298.541 382.509H300.212C300.495 382.509 300.727 382.194 300.727 381.806C300.726 381.628 300.781 381.455 300.884 381.308C300.923 381.248 300.977 381.198 301.041 381.162C301.104 381.126 301.176 381.106 301.249 381.103H302.901C303.184 381.103 303.415 381.418 303.413 381.807C303.412 381.985 303.467 382.158 303.57 382.305C303.609 382.365 303.663 382.415 303.727 382.451C303.79 382.487 303.862 382.507 303.935 382.51H305.606C305.889 382.51 306.12 382.195 306.12 381.807C306.118 381.63 306.172 381.456 306.276 381.31C306.315 381.249 306.369 381.199 306.433 381.163C306.496 381.128 306.568 381.107 306.641 381.104H308.29C308.573 381.104 308.805 381.419 308.805 381.809C308.805 381.986 308.86 382.16 308.962 382.306C309.002 382.366 309.056 382.416 309.119 382.452C309.183 382.488 309.254 382.509 309.327 382.513H310.999C311.284 382.513 311.513 382.198 311.513 381.81C311.512 381.633 311.567 381.459 311.67 381.313C311.709 381.252 311.762 381.202 311.825 381.166C311.889 381.13 311.96 381.11 312.033 381.107H313.682C313.967 381.107 314.197 381.424 314.197 381.812C314.197 382.2 314.428 382.513 314.711 382.515H316.382C316.669 382.515 316.897 382.201 316.899 381.812C316.901 381.422 317.128 381.111 317.411 381.111H319.065C319.348 381.111 319.579 381.425 319.579 381.813C319.577 381.991 319.631 382.166 319.735 382.312C319.774 382.373 319.828 382.423 319.891 382.459C319.954 382.495 320.026 382.515 320.099 382.518H321.771C322.055 382.518 322.286 382.203 322.286 381.813L322.203 379.714C322.196 379.544 322.122 379.383 321.996 379.266C321.87 379.148 321.701 379.082 321.526 379.082H265.659L265.658 381.818Z" fill="white"/>
<path d="M322.39 190.859V339.864H278.753V150.528H360.652L425.722 339.864H379.879L325.801 190.294C325.146 188.485 322.39 188.942 322.39 190.859Z" fill="#C8D9D2"/>
<path d="M281.73 339.864V156.918" stroke="white" stroke-width="5" stroke-miterlimit="10" stroke-linecap="round" stroke-dasharray="12 12"/>
<path d="M359.688 156.682L422.279 339.864" stroke="white" stroke-width="5" stroke-miterlimit="10" stroke-linecap="round" stroke-dasharray="12 12"/>
<path d="M278.753 150.831H361.283L363.399 156.636H278.753V150.831Z" stroke="white" stroke-width="5" stroke-miterlimit="10" stroke-linecap="round"/>
<path d="M317.089 156.616V176.179C317.089 180.423 320.285 183.866 324.228 183.866" stroke="white" stroke-width="5" stroke-miterlimit="10" stroke-linecap="round"/>
<path d="M318.607 155.043C319.447 155.043 320.129 154.382 320.129 153.566C320.129 152.75 319.447 152.089 318.607 152.089C317.767 152.089 317.086 152.75 317.086 153.566C317.086 154.382 317.767 155.043 318.607 155.043Z" stroke="white" stroke-width="5" stroke-miterlimit="10" stroke-linecap="round"/>
<path d="M365.127 174.756C360.246 174.756 355.564 172.874 352.113 169.523C348.661 166.172 346.721 161.627 346.721 156.887" stroke="white" stroke-width="5" stroke-miterlimit="10" stroke-linecap="round"/>
<path d="M278.576 174.604C283.457 174.604 288.139 172.722 291.591 169.37C295.042 166.019 296.982 161.474 296.982 156.735" stroke="white" stroke-width="5" stroke-miterlimit="10" stroke-linecap="round"/>
<path d="M425.971 339.862H377.56C376.815 339.861 376.092 339.625 375.498 339.189C374.904 338.753 374.473 338.141 374.269 337.446L372.45 331.219C372.305 330.725 372.281 330.205 372.379 329.7C372.476 329.195 372.693 328.719 373.011 328.309C373.33 327.899 373.743 327.566 374.216 327.337C374.69 327.108 375.211 326.988 375.741 326.988H424.152C424.896 326.989 425.62 327.225 426.214 327.661C426.808 328.097 427.239 328.709 427.443 329.404L429.262 335.631C429.406 336.125 429.431 336.645 429.333 337.15C429.236 337.655 429.019 338.131 428.7 338.541C428.381 338.951 427.969 339.283 427.496 339.513C427.022 339.742 426.5 339.861 425.971 339.862Z" fill="#DBE5E5" stroke="white" stroke-width="6" stroke-miterlimit="10"/>
<path d="M322.318 326.988H278.632C276.697 326.988 275.129 328.511 275.129 330.39V336.46C275.129 338.339 276.697 339.862 278.632 339.862H322.318C324.253 339.862 325.822 338.339 325.822 336.46V330.39C325.822 328.511 324.253 326.988 322.318 326.988Z" fill="#DBE5E5" stroke="white" stroke-width="6" stroke-miterlimit="10"/>
<path d="M307.964 111.943L317.67 131.046C318.493 132.665 316.224 135.385 312.602 137.12C308.981 138.854 305.375 138.945 304.554 137.328L294.848 118.224C293.121 114.824 292.346 111.042 292.601 107.259L292.837 103.746L290.153 98.4622C289.658 97.4885 290.269 96.2136 291.518 95.6156C292.767 95.0177 294.182 95.3235 294.674 96.2972L297.358 101.581L300.373 103.538C303.62 105.643 306.238 108.543 307.964 111.943Z" stroke="#FFE700" stroke-width="5" stroke-linecap="round" stroke-linejoin="round"/>
<path d="M293.311 99.1302C294.563 98.5306 295.176 97.2534 294.68 96.2776C294.184 95.3018 292.767 94.9968 291.515 95.5965C290.263 96.1961 289.65 97.4733 290.146 98.4491C290.642 99.425 292.059 99.7299 293.311 99.1302Z" stroke="#FFE700" stroke-width="5" stroke-linecap="round" stroke-linejoin="round"/>
<path d="M350.845 140.565L329.993 143.672C326.246 144.23 322.996 141.793 323.286 138.642L325.48 100.724L327.809 102.123L329.625 100.09L331.975 101.502L333.785 99.4692L336.136 100.881L337.946 98.8485L340.296 100.262L342.106 98.2278L344.457 99.6411L346.337 97.534L344.143 135.534C343.847 138.685 347.099 141.124 350.845 140.565Z" fill="#FFDB00"/>
<path d="M347.785 98.3601L348.849 97.1658L362.532 132.793C363.786 135.714 361.435 138.986 357.687 139.545L350.839 140.565C347.092 141.124 343.841 138.685 344.132 135.534L346.326 97.5325L347.785 98.3601Z" fill="#907B00"/>
<path d="M328.567 93.4141C328.055 94.5566 326.325 94.9263 324.704 94.2417C323.084 93.5571 322.183 92.0737 322.697 90.9311M314.671 98.3936L313.831 98.0376C313.326 97.8245 312.754 97.8147 312.242 98.0104C311.729 98.2061 311.318 98.5913 311.098 99.0813L309.761 102.062C309.652 102.304 309.593 102.565 309.588 102.83C309.583 103.095 309.632 103.358 309.731 103.604C309.831 103.851 309.98 104.076 310.169 104.266C310.358 104.457 310.585 104.609 310.835 104.715L326.257 111.239C326.507 111.345 326.777 111.402 327.049 111.407C327.322 111.412 327.594 111.365 327.848 111.268C328.102 111.171 328.334 111.027 328.53 110.843C328.727 110.659 328.884 110.44 328.993 110.197L330.33 107.216C330.439 106.973 330.498 106.712 330.503 106.447C330.508 106.182 330.459 105.919 330.359 105.672C330.259 105.426 330.11 105.2 329.92 105.01C329.73 104.819 329.504 104.667 329.253 104.561L328.417 104.207C328.777 104.359 329.164 104.441 329.557 104.448C329.95 104.455 330.341 104.387 330.706 104.247C331.072 104.108 331.406 103.9 331.689 103.635C331.971 103.37 332.198 103.054 332.354 102.704L333.107 101.03C333.382 100.419 333.53 99.7615 333.544 99.0947C333.557 98.4279 333.435 97.7651 333.184 97.1442C332.934 96.5232 332.56 95.9563 332.083 95.4758C331.607 94.9952 331.038 94.6105 330.408 94.3436L328.528 93.5464L330.28 89.6395C330.299 89.6045 330.314 89.5725 330.33 89.536C330.833 88.4178 329.924 86.9496 328.304 86.2695C326.683 85.5895 324.963 85.9348 324.46 87.0531C324.444 87.0896 324.432 87.1231 324.416 87.1596L322.664 91.0665L320.784 90.2678C319.512 89.73 318.072 89.7047 316.781 90.1975C315.49 90.6902 314.454 91.6606 313.9 92.8953L313.148 94.5688C312.829 95.2723 312.81 96.0697 313.096 96.7866C313.381 97.5034 313.947 98.0812 314.671 98.3936ZM325.55 86.872C325.911 86.0702 327.129 85.807 328.271 86.2924C329.413 86.7777 330.045 87.8138 329.681 88.6201C329.318 89.4265 328.103 89.6851 326.962 89.2028C325.822 88.7205 325.195 87.6814 325.55 86.872Z" stroke="white" stroke-width="5" stroke-miterlimit="10" stroke-linecap="round"/>
<path d="M307.77 106.498L298.181 127.866C298.11 128.02 298.071 128.187 298.067 128.355C298.063 128.524 298.092 128.692 298.155 128.85C298.217 129.007 298.311 129.151 298.431 129.274C298.551 129.396 298.694 129.494 298.853 129.563L300.29 130.171C300.518 130.266 300.769 130.296 301.014 130.259C301.258 130.221 301.487 130.117 301.674 129.958C301.729 129.894 301.79 129.835 301.849 129.777C302.189 129.482 302.609 129.29 303.059 129.222C303.51 129.155 303.97 129.217 304.385 129.399C304.8 129.581 305.152 129.877 305.397 130.249C305.642 130.622 305.771 131.056 305.767 131.498C305.766 131.503 305.766 131.509 305.767 131.515C305.765 131.544 305.765 131.574 305.767 131.604C305.765 131.611 305.765 131.619 305.767 131.626C305.762 131.792 305.791 131.957 305.853 132.112C305.915 132.27 306.009 132.413 306.129 132.534C306.249 132.656 306.393 132.753 306.552 132.82L307.986 133.429C308.219 133.526 308.477 133.555 308.727 133.514C308.977 133.472 309.21 133.36 309.396 133.193C309.435 133.149 309.476 133.109 309.518 133.069C309.853 132.769 310.27 132.57 310.719 132.496C311.168 132.422 311.629 132.476 312.047 132.651C312.465 132.827 312.822 133.117 313.073 133.485C313.325 133.854 313.461 134.286 313.464 134.728C313.465 134.79 313.461 134.852 313.453 134.913C313.455 135.159 313.531 135.399 313.67 135.604C313.808 135.809 314.005 135.972 314.237 136.071L315.67 136.68C315.994 136.814 316.359 136.817 316.685 136.69C317.011 136.563 317.272 136.315 317.41 136.001L326.998 114.635C327.307 113.948 327.321 113.17 327.039 112.473C326.756 111.775 326.2 111.215 325.493 110.916L311.604 105.039C311.254 104.89 310.876 104.809 310.494 104.802C310.111 104.795 309.731 104.861 309.375 104.996C309.019 105.132 308.694 105.334 308.418 105.592C308.143 105.85 307.922 106.158 307.77 106.498Z" stroke="white" stroke-width="5" stroke-miterlimit="10" stroke-linecap="round"/>
<path d="M314.213 98.2004L329.253 104.561" stroke="white" stroke-width="5" stroke-miterlimit="10" stroke-linecap="round"/>
<path d="M256.132 118.902C225.283 119.829 201.048 144.859 202.004 174.809C202.96 204.76 228.74 228.288 259.589 227.362C290.437 226.435 314.671 201.404 313.715 171.453C312.759 141.503 286.972 117.974 256.132 118.902ZM258.22 193.071C254.121 193.194 250.076 192.134 246.596 190.025C243.117 187.917 240.36 184.853 238.674 181.223C236.988 177.593 236.448 173.559 237.124 169.631C237.799 165.703 239.659 162.058 242.468 159.156C245.277 156.255 248.909 154.227 252.905 153.33C256.902 152.432 261.082 152.706 264.918 154.115C268.754 155.524 272.074 158.007 274.457 161.248C276.84 164.489 278.18 168.343 278.307 172.323C278.475 177.661 276.453 182.845 272.684 186.735C268.916 190.625 263.71 192.903 258.213 193.066L258.22 193.071Z" fill="#423C52"/>
<path d="M281.613 172.223C281.76 176.84 280.493 181.395 277.974 185.313C275.454 189.23 271.794 192.335 267.457 194.233C263.12 196.132 258.301 196.739 253.609 195.978C248.916 195.217 244.562 193.123 241.095 189.959C237.629 186.796 235.207 182.705 234.135 178.205C233.064 173.705 233.39 168.997 235.074 164.677C236.758 160.358 239.724 156.619 243.596 153.936C247.468 151.252 252.072 149.744 256.827 149.601C263.204 149.41 269.397 151.686 274.045 155.929C278.694 160.171 281.416 166.032 281.613 172.223Z" stroke="white" stroke-width="5" stroke-linejoin="round"/>
<path d="M331.679 67.6871L321.873 49.8578L305.005 50.4192V67.6871C305.005 67.6871 313.077 77.8151 331.679 67.6871Z" fill="#A0505A"/>
<path d="M322.04 53.2489L321.873 49.8622L305.005 50.4236V67.687C305.005 67.687 306.804 69.9433 310.658 71.2608L320.003 59.5201C321.428 57.7313 322.151 55.5079 322.04 53.2489Z" fill="#423C52"/>
<path d="M323.913 46.8926C323.914 47.6884 323.664 48.4653 323.196 49.1184C322.727 49.7714 322.064 50.2691 321.294 50.544L320.171 50.9457L320.257 52.5081C320.321 53.673 320.047 54.8318 319.468 55.8536C318.888 56.8753 318.025 57.7191 316.977 58.2895L308.045 63.1078C307.602 63.3483 307.105 63.4826 306.597 63.4995C306.089 63.5164 305.584 63.4154 305.125 63.2049C304.665 62.9944 304.264 62.6805 303.954 62.2891C303.644 61.8978 303.435 61.4405 303.344 60.955L302.705 57.509L300.638 57.617C300.48 57.6252 300.321 57.603 300.171 57.5518C300.022 57.5005 299.884 57.421 299.766 57.318C299.648 57.215 299.552 57.0905 299.484 56.9515C299.415 56.8125 299.376 56.6618 299.367 56.5079L298.783 45.9235L307.597 42.1763C308.782 41.6726 310.107 41.567 311.36 41.8762C312.614 42.1853 313.726 42.8916 314.52 43.8833L315.015 44.5025L318.53 43.2458C319.135 43.0299 319.786 42.9591 320.425 43.0395C321.064 43.12 321.674 43.3492 322.203 43.7078C322.732 44.0663 323.163 44.5436 323.461 45.0989C323.759 45.6542 323.914 46.2712 323.913 46.8972V46.8926Z" fill="#A0505A"/>
<path d="M303.142 47.1635C303.142 47.1635 306.178 46.7071 308.558 47.4906" stroke="#423C52" stroke-width="5" stroke-miterlimit="10" stroke-linecap="round"/>
<path d="M305.845 52.0505C306.225 52.0307 306.5 51.4291 306.46 50.7067C306.42 49.9843 306.08 49.4146 305.701 49.4344C305.321 49.4541 305.046 50.0558 305.086 50.7782C305.126 51.5006 305.466 52.0702 305.845 52.0505Z" fill="#423C52"/>
<path d="M318.565 48.0915C318.448 47.7842 318.395 47.4575 318.408 47.1302C318.422 46.8028 318.501 46.4813 318.643 46.1839C318.784 45.8865 318.985 45.619 319.233 45.3968C319.481 45.1747 319.771 45.0021 320.088 44.889" stroke="#423C52" stroke-width="5" stroke-miterlimit="10" stroke-linecap="round"/>
<path d="M319.632 43.0176C319.632 43.0176 318.734 33.1649 311.954 33.5088C307.909 33.7142 308.103 37.008 308.103 37.008C308.103 37.008 307.035 32.2262 302.026 33.7339C300.638 34.1508 299.894 34.9374 299.494 35.695C299.408 35.8632 299.287 36.0122 299.139 36.1325C298.991 36.2529 298.818 36.3419 298.633 36.394C298.447 36.4461 298.252 36.4601 298.06 36.4351C297.869 36.4101 297.685 36.3467 297.52 36.2488C296.313 35.5109 294.613 35.374 291.972 36.5653C285.797 39.3525 290.913 49.2249 298.776 45.9219L306.566 42.6098H306.577C307.834 42.1263 309.232 42.1245 310.49 42.6047C311.748 43.0849 312.771 44.0113 313.351 45.1962L314.08 46.6811C314.166 46.8456 314.3 46.9812 314.467 47.0699C314.633 47.1585 314.824 47.1962 315.012 47.178C315.201 47.1597 315.38 47.0863 315.525 46.9675C315.67 46.8486 315.775 46.6899 315.826 46.5122C315.879 46.0984 315.802 43.5577 319.632 43.0176Z" fill="#423C52"/>
<path d="M299.851 172.43C298.128 175.26 290.468 187.419 285.435 188.557C279.543 189.89 268.511 184.811 256.425 177.364C254.662 176.278 252.882 175.145 251.084 173.965C252.994 171.674 255.785 168.975 259.095 166.317C264.369 162.087 269.28 159.37 272.049 158.862L274.204 160.882L275.285 161.899L276.553 161.563C278.694 160.998 280.957 161.033 283.079 161.664C285.2 162.296 287.095 163.497 288.542 165.13C289.155 165.822 289.681 166.583 290.109 167.396L291.962 171.96L299.499 171.856C299.569 171.854 299.638 171.87 299.7 171.903C299.762 171.936 299.813 171.984 299.849 172.042C299.885 172.101 299.904 172.168 299.905 172.236C299.905 172.304 299.887 172.371 299.851 172.43Z" fill="#A0505A"/>
<path d="M292.773 183.025C292.11 183.672 290.988 184.901 289.973 185.131C287.757 185.631 284.043 184.91 280.61 183.795" stroke="#423C52" stroke-width="5" stroke-miterlimit="10" stroke-linecap="round"/>
<path d="M296.446 178.257C295.784 178.903 294.662 180.133 293.646 180.363C291.43 180.863 287.56 180.446 284.126 179.331" stroke="#423C52" stroke-width="5" stroke-miterlimit="10" stroke-linecap="round"/>
<path d="M299.765 172.337C299.102 172.985 296.752 175.429 295.736 175.657C293.521 176.159 290.589 175.742 287.155 174.627" stroke="#423C52" stroke-width="5" stroke-miterlimit="10" stroke-linecap="round"/>
<path d="M291.955 171.555L284.985 168.368" stroke="#423C52" stroke-width="5" stroke-miterlimit="10" stroke-linecap="round"/>
<path d="M274.211 160.876C273.363 163.352 269.539 167.653 264.011 172.088C261.62 174.023 259.087 175.786 256.431 177.362C254.669 176.276 252.889 175.143 251.091 173.964C253.001 171.672 255.792 168.973 259.101 166.315C264.376 162.086 269.287 159.369 272.056 158.861L274.211 160.876Z" fill="#423C52"/>
<path d="M367.659 119.062H327.163V150.285H367.659V119.062Z" fill="#FF7500"/>
<path d="M358.887 118.758H327.848" stroke="white" stroke-width="5" stroke-miterlimit="10" stroke-linecap="round"/>
<path d="M332.568 134.644C332.568 125.956 330.217 118.303 327.691 118.303C324.997 118.303 322.815 125.956 322.815 134.644C322.815 143.333 324.997 150.377 327.691 150.377C330.385 150.377 332.568 143.332 332.568 134.644Z" fill="white"/>
<path d="M332.568 134.644C332.568 138.104 332.221 141.304 331.627 143.901H331.512H330.258C328.327 143.901 326.049 143.901 324.136 143.89H323.744C321.863 143.875 320.401 143.846 320.111 143.794C314.067 142.705 304.515 140.325 293.833 129.493C291.098 126.722 291.463 116.903 291.874 111.682C291.896 111.4 292.002 111.132 292.18 110.908C292.357 110.684 292.598 110.516 292.872 110.423C293.147 110.331 293.443 110.318 293.725 110.386C294.007 110.455 294.262 110.601 294.459 110.809C298.231 114.764 303.977 119.68 307.176 119.15C312.933 118.2 303.471 112.339 307.068 109.413C307.068 109.413 321.364 118.206 323.871 118.301H323.949C324.35 118.301 325.751 118.326 327.353 118.339H328.03C330.43 118.995 332.568 126.347 332.568 134.644Z" fill="#A0505A"/>
<path d="M302.998 132.303C299.359 130.258 296.359 127.52 292.251 123.356" stroke="#423C52" stroke-width="5" stroke-miterlimit="10" stroke-linecap="round"/>
<path d="M303.205 127.896C299.566 125.851 296.095 122.96 291.988 118.796" stroke="#423C52" stroke-width="5" stroke-miterlimit="10" stroke-linecap="round"/>
<path d="M303.412 123.488C299.773 121.443 296.302 118.553 292.193 114.388" stroke="#423C52" stroke-width="5" stroke-miterlimit="10" stroke-linecap="round"/>
<path d="M332.568 134.644C332.568 138.104 332.221 141.304 331.627 143.901H331.512H330.258C328.327 143.901 326.049 143.901 324.136 143.89H323.744C323.158 141.295 322.813 138.1 322.813 134.644C322.813 126.322 324.816 118.95 327.357 118.346H328.034C330.43 118.995 332.568 126.347 332.568 134.644Z" fill="#423C52"/>
</svg>
